<?xml version="1.0" encoding="UTF-8" standalone="no"?>
<svg
   xmlns:dc="http://purl.org/dc/elements/1.1/"
   xmlns:cc="http://creativecommons.org/ns#"
   xmlns:rdf="http://www.w3.org/1999/02/22-rdf-syntax-ns#"
   xmlns:svg="http://www.w3.org/2000/svg"
   xmlns="http://www.w3.org/2000/svg"
   xmlns:sodipodi="http://sodipodi.sourceforge.net/DTD/sodipodi-0.dtd"
   xmlns:inkscape="http://www.inkscape.org/namespaces/inkscape"
   sodipodi:docname="DjZ_osc1.svg"
   inkscape:version="1.0 (4035a4f, 2020-05-01)"
   id="svg8"
   version="1.1"
   viewBox="0 0 128.50001 128.50002"
   height="128.5mm"
   width="128.5mm">
  <defs
     id="defs2" />
  <sodipodi:namedview
     inkscape:document-rotation="0"
     inkscape:snap-nodes="false"
     inkscape:snap-bbox-midpoints="true"
     inkscape:window-maximized="1"
     inkscape:window-y="23"
     inkscape:window-x="0"
     inkscape:window-height="1155"
     inkscape:window-width="1920"
     inkscape:snap-bbox-edge-midpoints="false"
     inkscape:bbox-nodes="false"
     inkscape:snap-page="true"
     inkscape:snap-bbox="true"
     units="mm"
     showgrid="false"
     inkscape:current-layer="layer2"
     inkscape:document-units="mm"
     inkscape:cy="271.60247"
     inkscape:cx="258.04935"
     inkscape:zoom="1.4"
     inkscape:pageshadow="2"
     inkscape:pageopacity="0.0"
     borderopacity="1.0"
     bordercolor="#666666"
     pagecolor="#ffffff"
     id="base" />
  <metadata
     id="metadata5">
    <rdf:RDF>
      <cc:Work
         rdf:about="">
        <dc:format>image/svg+xml</dc:format>
        <dc:type
           rdf:resource="http://purl.org/dc/dcmitype/StillImage" />
        <dc:title />
      </cc:Work>
    </rdf:RDF>
  </metadata>
  <g
     transform="translate(0,-168.49998)"
     id="layer1"
     inkscape:groupmode="layer"
     inkscape:label="Layer 1">
    <rect
       y="168.49997"
       x="5.9211732e-17"
       height="128.5"
       width="128.37584"
       id="rect420"
       style="display:inline;opacity:1;vector-effect:none;fill:#808080;fill-opacity:1;fill-rule:evenodd;stroke:none;stroke-width:1.33266;stroke-linecap:butt;stroke-linejoin:miter;stroke-miterlimit:4;stroke-dasharray:none;stroke-dashoffset:0;stroke-opacity:1;paint-order:normal" />
    <g
       transform="translate(8.8824405,-9.0714283)"
       id="text4944"
       style="font-style:normal;font-variant:normal;font-weight:300;font-stretch:normal;font-size:4.93889px;line-height:6.61458px;font-family:'Gotham Rounded';-inkscape-font-specification:'Gotham Rounded Light';font-variant-ligatures:normal;font-variant-caps:normal;font-variant-numeric:normal;font-feature-settings:normal;text-align:center;letter-spacing:0px;word-spacing:0px;writing-mode:lr-tb;text-anchor:middle;display:inline;fill:#ffffff;fill-opacity:1;stroke:none;stroke-width:0.264583px;stroke-linecap:butt;stroke-linejoin:miter;stroke-opacity:1"
       aria-label="Pitch">
      <path
         inkscape:connector-curvature="0"
         id="path5046"
         style="font-style:normal;font-variant:normal;font-weight:300;font-stretch:normal;font-size:4.23333px;font-family:'Gotham Rounded';-inkscape-font-specification:'Gotham Rounded Light';text-align:center;text-anchor:middle;fill:#ffffff;stroke-width:0.264583px"
         d="m 10.377818,215.46915 c 0,0.0593 0.0508,0.11007 0.110067,0.11007 0.05927,0 0.110067,-0.0508 0.110067,-0.11007 v -1.01176 h 0.8001 c 0.618066,0 1.155699,-0.32174 1.155699,-0.94404 v -0.008 c 0,-0.5715 -0.448733,-0.90594 -1.100666,-0.90594 h -0.9652 c -0.05927,0 -0.110067,0.0508 -0.110067,0.11007 z m 0.220134,-1.21496 v -1.45204 h 0.8382 c 0.533399,0 0.897466,0.24554 0.897466,0.71544 v 0.008 c 0,0.44027 -0.372533,0.72814 -0.922866,0.72814 z" />
      <path
         inkscape:connector-curvature="0"
         id="path5048"
         style="font-style:normal;font-variant:normal;font-weight:300;font-stretch:normal;font-size:4.23333px;font-family:'Gotham Rounded';-inkscape-font-specification:'Gotham Rounded Light';text-align:center;text-anchor:middle;fill:#ffffff;stroke-width:0.264583px"
         d="m 13.163219,212.73442 c 0,0.072 0.05503,0.127 0.127,0.127 0.07197,0 0.131233,-0.055 0.131233,-0.127 v -0.072 c 0,-0.072 -0.05927,-0.127 -0.131233,-0.127 -0.07197,0 -0.127,0.055 -0.127,0.127 z m 0.0254,2.73897 c 0,0.0635 0.04657,0.10583 0.105833,0.10583 0.05927,0 0.1016,-0.0423 0.1016,-0.10583 v -1.9812 c 0,-0.0635 -0.04657,-0.10584 -0.105833,-0.10584 -0.05927,0 -0.1016,0.0466 -0.1016,0.10584 z" />
      <path
         inkscape:connector-curvature="0"
         id="path5050"
         style="font-style:normal;font-variant:normal;font-weight:300;font-stretch:normal;font-size:4.23333px;font-family:'Gotham Rounded';-inkscape-font-specification:'Gotham Rounded Light';text-align:center;text-anchor:middle;fill:#ffffff;stroke-width:0.264583px"
         d="m 14.928717,215.60039 c 0.122767,0 0.220134,-0.0254 0.3048,-0.055 0.04233,-0.0169 0.06773,-0.0466 0.06773,-0.0889 0,-0.0508 -0.04657,-0.0931 -0.09313,-0.0931 -0.02963,0 -0.09737,0.0423 -0.245533,0.0423 -0.249767,0 -0.4318,-0.11006 -0.4318,-0.4191 v -1.39276 h 0.677333 c 0.0508,0 0.09737,-0.0423 0.09737,-0.0931 0,-0.0508 -0.04657,-0.0974 -0.09737,-0.0974 h -0.677333 v -0.60114 c 0,-0.0593 -0.04657,-0.10583 -0.105833,-0.10583 -0.05927,0 -0.1016,0.0466 -0.1016,0.10583 v 0.60114 h -0.232833 c -0.0508,0 -0.09737,0.0423 -0.09737,0.0931 0,0.0508 0.04657,0.0974 0.09737,0.0974 h 0.232833 v 1.41393 c 0,0.41063 0.270933,0.59267 0.605366,0.59267 z" />
      <path
         inkscape:connector-curvature="0"
         id="path5052"
         style="font-style:normal;font-variant:normal;font-weight:300;font-stretch:normal;font-size:4.23333px;font-family:'Gotham Rounded';-inkscape-font-specification:'Gotham Rounded Light';text-align:center;text-anchor:middle;fill:#ffffff;stroke-width:0.264583px"
         d="m 16.790392,215.61309 c 0.3683,0 0.618067,-0.1524 0.833967,-0.37254 0.01693,-0.0169 0.0254,-0.0423 0.0254,-0.0635 0,-0.0508 -0.0508,-0.1016 -0.1016,-0.1016 -0.02963,0 -0.0508,0.0169 -0.06773,0.0339 -0.173566,0.17357 -0.397933,0.30903 -0.677333,0.30903 -0.4953,0 -0.889,-0.41486 -0.889,-0.93556 v -0.008 c 0,-0.51647 0.381,-0.9271 0.872067,-0.9271 0.2921,0 0.4953,0.1397 0.668866,0.3048 0.01693,0.0169 0.04657,0.0254 0.07197,0.0254 0.05927,0 0.105833,-0.0466 0.105833,-0.10583 0,-0.0296 -0.0127,-0.0593 -0.02963,-0.0762 -0.194733,-0.18204 -0.440267,-0.3429 -0.8128,-0.3429 -0.618067,0 -1.100667,0.52493 -1.100667,1.1303 v 0.008 c 0,0.60537 0.478367,1.12184 1.100667,1.12184 z" />
      <path
         inkscape:connector-curvature="0"
         id="path5054"
         style="font-style:normal;font-variant:normal;font-weight:300;font-stretch:normal;font-size:4.23333px;font-family:'Gotham Rounded';-inkscape-font-specification:'Gotham Rounded Light';text-align:center;text-anchor:middle;fill:#ffffff;stroke-width:0.264583px"
         d="m 18.252215,215.47339 c 0,0.0635 0.04657,0.10583 0.105833,0.10583 0.05927,0 0.1016,-0.0423 0.1016,-0.10583 v -1.15994 c 0,-0.44873 0.325967,-0.77046 0.7493,-0.77046 0.436033,0 0.6858,0.2921 0.6858,0.7366 v 1.1938 c 0,0.0635 0.04657,0.10583 0.105833,0.10583 0.05927,0 0.1016,-0.0423 0.1016,-0.10583 v -1.2319 c 0,-0.51647 -0.3175,-0.889 -0.8636,-0.889 -0.3937,0 -0.635,0.19896 -0.778933,0.45296 v -1.2446 c 0,-0.0593 -0.04657,-0.10583 -0.105833,-0.10583 -0.05927,0 -0.1016,0.0466 -0.1016,0.10583 z" />
    </g>
  </g>
  <g
     inkscape:label="components"
     id="layer2"
     inkscape:groupmode="layer">
    <circle
       inkscape:label="pitch"
       r="4"
       cy="25.260416"
       cx="24.1"
       id="path4954"
       style="display:inline;opacity:1;vector-effect:none;fill:#ff0000;fill-opacity:1;fill-rule:evenodd;stroke:none;stroke-width:1;stroke-linecap:butt;stroke-linejoin:miter;stroke-miterlimit:4;stroke-dasharray:none;stroke-dashoffset:0;stroke-opacity:1;paint-order:normal" />
    <text
       transform="scale(0.92749296,1.0781753)"
       id="text98"
       y="103.94411"
       x="22.460295"
       style="font-style:normal;font-variant:normal;font-weight:normal;font-stretch:normal;font-size:9.81594px;line-height:1.25;font-family:sans-serif;-inkscape-font-specification:'sans-serif, Normal';font-variant-ligatures:normal;font-variant-caps:normal;font-variant-numeric:normal;font-variant-east-asian:normal;stroke-width:0.245399"
       xml:space="preserve"><tspan
         style="font-style:normal;font-variant:normal;font-weight:normal;font-stretch:normal;font-size:9.81594px;font-family:sans-serif;-inkscape-font-specification:'sans-serif, Normal';font-variant-ligatures:normal;font-variant-caps:normal;font-variant-numeric:normal;font-variant-east-asian:normal;fill:#ffffff;stroke-width:0.245399"
         y="103.94411"
         x="22.460295"
         id="tspan96"
         sodipodi:role="line">OSCILLATOR BANK</tspan></text>
    <text
       id="text47"
       y="109.71801"
       x="116.32093"
       style="font-style:normal;font-variant:normal;font-weight:normal;font-stretch:normal;font-size:3.52778px;line-height:1.25;font-family:sans-serif;-inkscape-font-specification:'sans-serif, Normal';font-variant-ligatures:normal;font-variant-caps:normal;font-variant-numeric:normal;font-variant-east-asian:normal;fill:#ffffff;fill-opacity:1;stroke:none;stroke-width:0.264583"
       xml:space="preserve"><tspan
         style="font-style:normal;font-variant:normal;font-weight:normal;font-stretch:normal;font-size:3.52778px;font-family:sans-serif;-inkscape-font-specification:'sans-serif, Normal';font-variant-ligatures:normal;font-variant-caps:normal;font-variant-numeric:normal;font-variant-east-asian:normal;fill:#ffffff;stroke-width:0.264583"
         y="109.71801"
         x="116.32093"
         id="tspan45"
         sodipodi:role="line">Out</tspan></text>
    <text
       xml:space="preserve"
       style="font-style:normal;font-variant:normal;font-weight:normal;font-stretch:normal;font-size:3.52777px;line-height:1.25;font-family:sans-serif;-inkscape-font-specification:'sans-serif, Normal';font-variant-ligatures:normal;font-variant-caps:normal;font-variant-numeric:normal;font-variant-east-asian:normal;fill:#ffffff;fill-opacity:1;stroke:none;stroke-width:0.264583;image-rendering:optimizeSpeed"
       x="2.7315207"
       y="110.32861"
       id="text47-8"><tspan
         sodipodi:role="line"
         id="tspan45-3"
         x="2.7315207"
         y="110.32861"
         style="font-style:normal;font-variant:normal;font-weight:normal;font-stretch:normal;font-size:3.52777px;font-family:sans-serif;-inkscape-font-specification:'sans-serif, Normal';font-variant-ligatures:normal;font-variant-caps:normal;font-variant-numeric:normal;font-variant-east-asian:normal;fill:#ffffff;stroke-width:0.264583">1V/Oct</tspan></text>
    <circle
       inkscape:label="pitch"
       style="display:inline;vector-effect:none;fill:#00ff00;fill-opacity:1;fill-rule:evenodd;stroke:none;stroke-width:1;stroke-linecap:butt;stroke-linejoin:miter;stroke-miterlimit:4;stroke-dasharray:none;stroke-dashoffset:0;stroke-opacity:1;paint-order:normal"
       id="circle4956"
       cx="9.0704517"
       cy="99.028923"
       r="4" />
    <circle
       inkscape:label="sine"
       r="4"
       cy="99.028923"
       cx="119.57795"
       id="circle4958"
       style="display:inline;vector-effect:none;fill:#0000ff;fill-opacity:1;fill-rule:evenodd;stroke:none;stroke-width:1;stroke-linecap:butt;stroke-linejoin:miter;stroke-miterlimit:4;stroke-dasharray:none;stroke-dashoffset:0;stroke-opacity:1;paint-order:normal" />
  </g>
</svg>
