<svg xmlns:fpd="http://www.schaeffer-ag.de" xmlns="http://www.w3.org/2000/svg" width="2003.15" height="718.11" viewBox="0 0 530 190">
  <path fpd:visible="front back" stroke-width=".1mm" stroke="#000" vector-effect="non-scaling-stroke" fill="#0f0f0f" d="M530 0v190H0V0h530" fill-rule="evenodd" stroke-linecap="round" stroke-linejoin="round"/>
  <path fpd:engraving_ral_9010="1" fpd:print_element="1" fpd:visible="front" stroke-width=".6mm" stroke="#fff" vector-effect="non-scaling-stroke" fill="none" d="M163.299 135.88v-4.338l2.115 3.134 2.114-3.134v4.339M168.978 131.542v.24M168.978 132.988v2.893M170.429 135.88v-2.892 1.206a1.51 1.205 0 013.02 0v1.687M174.9 131.542v.24M174.9 132.988v2.893M176.35 135.88v-4.338l2.115 3.134 2.114-3.134v4.339M182.029 134.676v-.482a1.51 1.205 0 013.02 0v.482a1.51 1.205 0 01-3.02 0M186.5 134.676v-.482a1.51 1.205 0 013.02 0v.482a1.51 1.205 0 01-3.02 0M193.99 132.988v1.688a1.511 1.206 0 01-3.02.096v-.578a1.51 1.205 0 013.02 0v1.928a1.523 1.216 0 01-2.597.868M202.63 132.169a1.771 1.414 0 00-3.322.723v1.639a1.815 1.449 0 003.504.53M204.262 134.676v-.482a1.51 1.205 0 013.02 0v.482a1.51 1.205 0 01-3.02 0M208.732 135.88v-2.892 1.206a1.51 1.205 0 013.02 0v1.687M213.745 131.542v1.446h.906-1.51.604v2.314a.737.588 0 00.604.579M216.1 135.88v-2.892.965a1.335 1.065 0 01.303-.675.86.687 0 011.329 0M219.12 134.676v-.482a1.51 1.205 0 013.02 0v.482a1.51 1.205 0 01-3.02 0M223.59 131.542v3.76a.737.588 0 00.604.579M225.644 131.542v3.76a.737.588 0 00.604.579M227.697 134.435h3.02v-.241a1.51 1.205 0 00-3.02 0v.482a1.584 1.264 0 002.839.77M232.167 135.882v-2.893.965a1.335 1.065 0 01.302-.675.86.687 0 011.329 0M239.052 135.882v-4.34l2.114 3.135 2.115-3.134v4.339M244.729 131.543v4.339-1.64l1.027-.771 2.598 2.41-2.598-2.41 2.598-1.928M249.803 131.543v4.339" stroke-linecap="round" stroke-linejoin="round"/>
  <path fpd:engraving_ral_9010="1" fpd:print_element="1" fpd:visible="front" stroke-width=".2mm" stroke="#fff" vector-effect="non-scaling-stroke" fill="none" d="M71.002 36.388h1.117-.558v1.675M72.566 36.388v1.154a.558-.558 0 001.117 0v-1.154M74.129 38.063v-1.675l1.117 1.675v-1.675M75.692 37.226h.931M76.809 36.388h-1.117v1.675h1.117" stroke-linecap="round" stroke-linejoin="round"/>
  <path fpd:engraving_ral_9010="1" fpd:print_element="1" fpd:visible="front" stroke-width=".6mm" stroke="#fff" vector-effect="non-scaling-stroke" fill="none" d="M53.507 123.192a1.569-1.414 0 00-2.944.723v1.639a1.608-1.449 0 003.104.53M54.952 125.458a1.712-1.543 0 003.425 0v-1.447a1.712-1.543 0 00-3.425 0v1.447M59.662 126.904v-4.339l3.211 4.339v-4.339M64.158 122.565h3.21-1.605v4.339M68.653 126.904v-4.339h1.766a1.204-1.085 0 010 2.169h-1.766 1.873l1.07 2.17M72.828 125.458a1.712-1.543 0 003.425 0v-1.447a1.712-1.543 0 00-3.425 0v1.447M77.536 122.565v4.339h2.676M81.496 122.565v4.339h2.675M85.455 124.734h2.676M88.666 122.565h-3.211v4.339h3.211M89.95 126.904v-4.339h1.766a1.204-1.085 0 010 2.169H89.95h1.873l1.07 2.17M97.227 122.999a1.27-1.144 0 00-.749-.434 3.023-2.723 0 00-1.499.048 1.43-1.288 0 00-.749.482.979-.882 0 00.482 1.35l1.873.579a.979-.882 0 01.481 1.35 1.43-1.288 0 01-.749.482 3.023-2.723 0 01-1.498.048 1.27-1.144 0 01-.749-.434M132.081 125.458a1.933-1.543 0 003.866 0v-1.447a1.933-1.543 0 00-3.866 0v1.447M140.901 122.999a1.433-1.144 0 00-.846-.434 3.412-2.723 0 00-1.691.048 1.614-1.288 0 00-.846.482 1.105-.882 0 00.544 1.35l2.114.579a1.105-.882 0 01.544 1.35 1.614-1.288 0 01-.846.482 3.412-2.723 0 01-1.691.048 1.433-1.144 0 01-.846-.434M145.674 123.192a1.771-1.414 0 00-3.322.723v1.639a1.815-1.449 0 003.503.53M147.306 122.565v4.339M148.757 122.565v4.339h3.02M153.228 122.565v4.339h3.02M158.302 125.699h3.021M157.698 126.904l2.115-4.339 2.114 4.339M163.377 122.565h3.624-1.812v4.339M168.45 125.458a1.933-1.543 0 003.866 0v-1.447a1.933-1.543 0 00-3.866 0v1.447M173.766 126.904v-4.339h1.993a1.359-1.085 0 010 2.169h-1.993 2.114l1.208 2.17M184.336 124.734a1.359-1.085 0 000-2.169h-1.994v4.339h2.296a1.359-1.085 0 000-2.17h-2.296M188.02 125.699h3.02M187.416 126.904l2.114-4.339 2.114 4.339M193.093 126.904v-4.339l3.625 4.339v-4.339M198.166 122.565v4.339-1.639l1.027-.772 2.598 2.411-2.598-2.411 2.598-1.928" stroke-linecap="round" stroke-linejoin="round"/>
  <path fpd:engraving_ral_9010="1" fpd:print_element="1" fpd:visible="front" stroke-width=".4mm" stroke="#fff" vector-effect="non-scaling-stroke" fill="none" d="M110.695 5.349v36.498M226.034 3.545v124.826M435.301 3.942l.4 124.032" stroke-linecap="round" stroke-linejoin="round"/>
  <path fpd:engraving_ral_9010="1" fpd:print_element="1" fpd:visible="front" stroke-width=".6mm" stroke="#fff" vector-effect="non-scaling-stroke" fill="none" d="M272.121 127.404v-4.339l2.114 3.134 2.115-3.134v4.339M277.8 123.065v4.339M279.251 123.065l3.624 4.339M279.251 127.404l3.624-4.339M284.324 125.234h3.02M287.948 123.065h-3.624v4.339h3.624M289.397 127.404v-4.339h1.994a1.359-1.085 0 010 2.169h-1.994 2.115l1.208 2.17M367.481 126.904v-4.339l2.114 3.134 2.115-3.134v4.339M373.16 125.458a1.933-1.543 0 003.866 0v-1.447a1.933-1.543 0 00-3.866 0v1.447M378.476 122.565h1.873a1.822-1.454 0 011.752 1.446v1.447a1.75-1.397 0 01-1.752 1.446h-1.873v-4.339M383.551 122.565v4.339M385.002 124.734h3.02M388.626 122.565h-3.624v4.339M390.075 122.565v4.339M391.525 124.734h3.02M395.15 122.565h-3.625v4.339h3.625M396.598 126.904v-4.339h1.994a1.359-1.085 0 010 2.169h-1.994 2.115l1.208 2.17M404.813 122.999a1.433-1.144 0 00-.845-.434 3.412-2.723 0 00-1.692.048 1.614-1.288 0 00-.845.482 1.105-.882 0 00.543 1.35l2.114.579a1.105-.882 0 01.544 1.35 1.614-1.288 0 01-.846.482 3.412-2.723 0 01-1.691.048 1.433-1.144 0 01-.846-.434M450.284 125.458a1.933-1.543 0 003.866 0v-1.447a1.933-1.543 0 00-3.866 0v1.447M455.6 122.565v2.989a1.813-1.446 0 003.625 0v-2.989M460.675 122.565h3.624-1.812v4.339M465.748 126.904v-4.339h1.994a1.359-1.085 0 010 2.169h-1.994M470.459 122.565v2.989a1.813-1.446 0 003.625 0v-2.989M475.533 122.565h3.624-1.812v4.339" stroke-linecap="round" stroke-linejoin="round"/>
  <path fpd:engraving_ral_9010="1" fpd:print_element="1" fpd:visible="front" stroke-width=".2mm" stroke="#fff" vector-effect="non-scaling-stroke" fill="none" d="M53.837 75.091h.409v.279a.596-.596 0 01-1.191 0v-.559a.574-.574 0 011.061-.316M54.693 74.253v1.675h.931M56.071 74.253v1.675M56.517 74.253h.577a.561-.561 0 01.54.558v.559a.539-.539 0 01-.54.558h-.577v-1.675M58.08 75.092h.931M59.197 74.254H58.08v1.675h1.117M86.958 75.86v-1.675l.652 1.21.651-1.21v1.675M88.708 75.302a.596-.596 0 001.191 0v-.559a.596-.596 0 00-1.191 0v.559M90.346 74.185h.577a.561-.561 0 01.54.558v.559a.539-.539 0 01-.54.558h-.577v-1.675M93.1 75.861v-1.675l.652 1.21.651-1.21v1.675M94.849 74.186v1.675M95.295 74.186l1.117 1.675M95.295 75.861l1.117-1.675M76.699 107.362a.596-.596 0 001.191 0v-.559a.596-.596 0 00-1.191 0v.559M79.417 106.412a.442-.442 0 00-.261-.167 1.051-1.051 0 00-.521.019.497-.497 0 00-.26.186.341-.341 0 00.167.521l.651.223a.341-.341 0 01.168.521.497-.497 0 01-.261.186 1.051-1.051 0 01-.521.019.442-.442 0 01-.26-.168M80.888 106.487a.546-.546 0 00-1.024.279v.633a.559-.559 0 001.08.205M81.39 107.921v-.093M83.027 106.508a.489-.489 0 01.447-.298.437-.437 0 010 .874.438-.438 0 010 .875.517-.517 0 01-.447-.26M98.61 107.847v-1.675l1.117 1.675v-1.675M100.174 107.289a.596-.596 0 001.191 0v-.559a.596-.596 0 00-1.191 0v.559M101.812 106.172v1.675M103.338 106.34a.442-.442 0 00-.261-.168 1.051-1.051 0 00-.521.019.497-.497 0 00-.26.186.341-.341 0 00.167.521l.651.223a.341-.341 0 01.168.521.497-.497 0 01-.261.186 1.051-1.051 0 01-.521.019.442-.442 0 01-.26-.167M103.784 107.01h.931M104.901 106.172h-1.117v1.675h1.117M102.402 45.393a.713-.595 0 001.425 0v-.558a.713-.595 0 00-1.425 0v.558M105.653 44.444a.528-.441 0 00-.311-.167 1.257-1.051 0 00-.624.019.595-.497 0 00-.312.186.407-.34 0 00.201.52l.779.224a.407-.34 0 01.2.52.595-.497 0 01-.311.186 1.257-1.051 0 01-.624.019.528-.441 0 01-.311-.167M107.413 44.519a.653-.545 0 00-1.224.279v.632a.669-.559 0 001.291.205M108.015 44.278v1.674M108.55 44.278v1.674h1.113M110.198 44.278v1.674h1.114M112.068 45.487h1.113M111.846 45.952l.779-1.674.779 1.674M113.938 44.278h1.336-.668v1.674M115.808 45.394a.713-.595 0 001.425 0v-.558a.713-.595 0 00-1.425 0v.558M117.766 45.952v-1.674h.735a.501-.419 0 010 .837h-.735.779l.445.837M102.079 49.163v-1.674l.779 1.209.78-1.209v1.674M104.173 48.605a.713-.595 0 001.425 0v-.558a.713-.595 0 00-1.425 0v.558M106.132 47.489h.69a.672-.561 0 01.646.558v.558a.645-.539 0 01-.646.558h-.69v-1.674M108.003 47.489v1.153a.668-.558 0 001.336 0v-1.153M109.874 47.489v1.674h1.113M111.744 48.698h1.113M111.521 49.163l.779-1.674.78 1.674M113.614 47.489h1.335-.668v1.674M115.483 47.489v1.674M116.017 48.605a.713-.595 0 001.425 0v-.558a.713-.595 0 00-1.425 0v.558M117.975 49.163v-1.674l1.336 1.674v-1.674" stroke-linecap="round" stroke-linejoin="round"/>
  <path fpd:engraving_ral_9010="1" fpd:print_element="1" fpd:visible="front" stroke-width=".4mm" stroke="#fff" vector-effect="non-scaling-stroke" fill="none" d="M110.695 53.848v74.498M489 128.645H31" stroke-linecap="round" stroke-linejoin="round"/>
  <path fpd:engraving_ral_9010="1" fpd:print_element="1" fpd:visible="front" stroke-width=".2mm" stroke="#fff" vector-effect="non-scaling-stroke" fill="none" d="M115.244 87.893a.713-.595 0 001.425 0v-.558a.713-.595 0 00-1.425 0v.558M118.495 86.944a.528-.441 0 00-.312-.167 1.257-1.051 0 00-.624.019.595-.497 0 00-.311.186.407-.34 0 00.2.52l.779.224a.407-.34 0 01.201.52.595-.497 0 01-.312.186 1.257-1.051 0 01-.623.019.528-.441 0 01-.312-.167M120.254 87.019a.653-.545 0 00-1.224.279v.632a.669-.559 0 001.291.205M120.855 88.452v-.093M122.836 86.945l.133-.093a.552-.462 0 01.78.651l-.935.949h1.113M117.538 90.231a.653-.545 0 00-1.224.279v.632a.669-.559 0 001.291.205M118.14 89.989h1.336-.668v1.674M120.01 91.663v-1.674h.735a.501-.419 0 010 .837h-.735.779l.446.837M121.746 89.989v1.674h1.113M115.272 111.393a.713-.595 0 001.425 0v-.558a.713-.595 0 00-1.425 0v.558M118.523 110.444a.528-.441 0 00-.311-.167 1.257-1.051 0 00-.624.019.595-.497 0 00-.312.186.407-.34 0 00.201.52l.779.224a.407-.34 0 01.2.52.595-.497 0 01-.311.186 1.257-1.051 0 01-.624.019.528-.441 0 01-.311-.167M120.283 110.519a.653-.545 0 00-1.224.279v.632a.669-.559 0 001.291.205M120.884 111.952v-.093M122.842 110.538a.585-.488 0 01.535-.297.523-.437 0 010 .874.523-.437 0 010 .874.619-.517 0 01-.535-.26M117.538 113.731a.653-.545 0 00-1.224.279v.632a.669-.559 0 001.291.205M118.14 113.489h1.336-.668v1.674M120.01 115.163v-1.674h.735a.501-.419 0 010 .837h-.735.779l.446.837M121.746 113.489v1.674h1.113M113.438 58.893a.713-.595 0 001.425 0v-.558a.713-.595 0 00-1.425 0v.558M115.396 59.451v-1.674l1.336 1.674v-1.674M167.402 25.614h1.113M168.737 24.777h-1.335v1.674M169.272 26.451v-1.674h.735a.502-.418 0 010 .837h-.735.78l.445.837M171.009 25.614h1.114M172.345 24.777h-1.336v1.674h1.336M172.88 25.893a.713-.595 0 001.425 0v-.558a.713-.595 0 00-1.425 0v.558M173.815 26.079l.49.409M174.84 24.778v1.153a.668-.558 0 001.336 0v-1.153M176.709 25.615h1.114M178.045 24.778h-1.336v1.674h1.336M178.579 26.452v-1.674l1.336 1.674v-1.674M181.673 25.02a.653-.545 0 00-1.224.279v.632a.669-.559 0 001.291.205M182.274 24.779l.668.837v.837-.837l.668-.837M173.385 28.156a.528-.441 0 00-.312-.167 1.257-1.051 0 00-.623.019.595-.497 0 00-.312.186.407-.34 0 00.201.52l.779.224a.407-.34 0 01.2.52.595-.497 0 01-.311.186 1.257-1.051 0 01-.624.019.528-.441 0 01-.311-.167M173.92 27.988l.668.837v.837-.837l.668-.837M175.79 29.662v-1.674l1.336 1.674v-1.674M178.884 28.23a.653-.545 0 00-1.224.279v.632a.669-.559 0 001.291.205" stroke-linecap="round" stroke-linejoin="round"/>
  <path fpd:engraving_ral_9010="1" fpd:print_element="1" fpd:visible="front" stroke-width=".4mm" stroke="#fff" vector-effect="non-scaling-stroke" fill="none" d="M162.272 16.044a.854.857 0 001.707 0v-.803a.854.857 0 00-1.707 0v.803M166.168 14.678a.633.636 0 00-.374-.241 1.507 1.513 0 00-.747.027.713.716 0 00-.373.268.488.49 0 00.24.75l.934.321a.488.49 0 01.24.75.713.716 0 01-.374.268 1.507 1.513 0 01-.747.027.633.636 0 01-.374-.241M168.276 14.785a.782.786 0 00-1.468.402v.911a.802.805 0 001.548.295M168.997 14.437v2.411M169.637 14.437v2.411h1.334M171.612 14.437v2.411h1.334M173.854 16.178h1.334M173.587 16.848l.934-2.411.934 2.411M176.095 14.437h1.601-.8v2.411M178.336 16.044a.854.857 0 001.708 0v-.803a.854.857 0 00-1.708 0v.803M180.684 16.848v-2.411h.88a.6.603 0 010 1.206h-.88.934l.533 1.205M184.471 15.643h1.388M188.205 14.973l.534-.536v2.411" stroke-linecap="round" stroke-linejoin="round"/>
  <path fpd:engraving_ral_9010="1" fpd:print_element="1" fpd:visible="front" stroke-width=".2mm" stroke="#fff" vector-effect="non-scaling-stroke" fill="none" d="M137.948 16.951v-1.674h.735a.502-.418 0 010 .837h-.735.779l.446.837M139.908 16.486h1.113M139.685 16.951l.779-1.674.779 1.674M141.779 16.951v-1.674l1.335 1.674v-1.674M144.583 16.114h.49v.279a.713-.595 0 01-1.425 0v-.558a.686-.573 0 011.269-.316M145.607 16.114h1.113M146.942 15.277h-1.335v1.674h1.335M200.667 15.274l.557 1.674.556-1.674.557 1.674.556-1.674M203.651 16.483h1.113M203.428 16.948l.78-1.674.779 1.674M205.522 15.274l.668 1.674.668-1.674M207.393 16.111h1.113M208.729 15.274h-1.336v1.674h1.336M209.263 16.111h1.113M210.598 15.274h-1.335v1.674M211.132 16.39a.713-.595 0 001.425 0v-.558a.713-.595 0 00-1.425 0v.558M213.091 16.948v-1.674h.734a.502-.418 0 010 .837h-.734.779l.445.837M214.826 16.948v-1.674l.779 1.209.78-1.209v1.674" stroke-linecap="round" stroke-linejoin="round"/>
  <path fpd:engraving_ral_9010="1" fpd:print_element="1" fpd:visible="front" stroke-width=".4mm" stroke="#fff" vector-effect="non-scaling-stroke" fill="none" d="M161.371 54.544a.854.857 0 001.708 0v-.803a.854.857 0 00-1.708 0v.803M165.267 53.178a.633.636 0 00-.373-.241 1.507 1.513 0 00-.747.027.713.716 0 00-.374.268.488.49 0 00.24.75l.934.321a.488.49 0 01.24.75.713.716 0 01-.373.268 1.507 1.513 0 01-.747.027.633.636 0 01-.374-.241M167.375 53.285a.782.786 0 00-1.467.402v.911a.802.805 0 001.548.295M168.096 52.937v2.411M168.737 52.937v2.411h1.334M170.712 52.937v2.411h1.334M172.954 54.678h1.334M172.687 55.348l.934-2.411.933 2.411M175.196 52.937h1.601-.801v2.411M177.437 54.544a.854.857 0 001.707 0v-.803a.854.857 0 00-1.707 0v.803M179.784 55.348v-2.411h.881a.6.603 0 010 1.206h-.881.934l.534 1.205M183.572 54.143h1.388M187.333 53.178l.16-.134a.662.665 0 01.934.938l-1.121 1.366h1.334M161.918 91.254a.854.857 0 001.708 0v-.803a.854.857 0 00-1.708 0v.803M165.814 89.888a.633.636 0 00-.373-.241 1.507 1.513 0 00-.747.027.713.716 0 00-.374.268.488.49 0 00.24.75l.934.321a.488.49 0 01.24.75.713.716 0 01-.373.268 1.507 1.513 0 01-.748.027.633.636 0 01-.373-.241M167.922 89.995a.782.786 0 00-1.467.402v.911a.802.805 0 001.547.295M168.643 89.647v2.411M169.283 89.647v2.411h1.335M171.259 89.647v2.411h1.334M173.5 91.388h1.334M173.234 92.058l.933-2.411.934 2.411M175.743 89.647h1.6-.8v2.411M177.984 91.254a.854.857 0 001.707 0v-.803a.854.857 0 00-1.707 0v.803M180.331 92.058v-2.411h.881a.6.603 0 010 1.205h-.881.934l.534 1.206M184.119 90.852h1.387M187.853 90.022a.701.703 0 01.64-.429.627.63 0 010 1.259.627.63 0 010 1.26.742.745 0 01-.64-.375" stroke-linecap="round" stroke-linejoin="round"/>
  <path fpd:engraving_ral_9010="1" fpd:print_element="1" fpd:visible="front" stroke-width=".2mm" stroke="#fff" vector-effect="non-scaling-stroke" fill="none" d="M237.428 15.274l.667 1.674.668-1.674M239.298 16.39a.713-.595 0 001.425 0v-.558a.713-.595 0 00-1.425 0v.558M241.258 15.274v1.674h1.113M242.906 15.274v1.153a.668-.558 0 001.336 0v-1.153M244.776 16.948v-1.674l.779 1.209.779-1.209v1.674M246.868 16.111h1.113M248.204 15.274h-1.336v1.674h1.336M272.938 40.89a.713-.595 0 001.425 0v-.558a.713-.595 0 00-1.425 0v.558M274.896 41.448v-1.674l1.336 1.674v-1.674M273.438 59.893a.713-.595 0 001.425 0v-.558a.713-.595 0 00-1.425 0v.558M275.396 60.451v-1.674l1.336 1.674v-1.674M273.438 76.393a.713-.595 0 001.425 0v-.558a.713-.595 0 00-1.425 0v.558M275.396 76.951v-1.674l1.336 1.674v-1.674M273.438 95.393a.713-.595 0 001.425 0v-.558a.713-.595 0 00-1.425 0v.558M275.396 95.951v-1.674l1.336 1.674v-1.674M272.938 113.893a.713-.595 0 001.425 0v-.558a.713-.595 0 00-1.425 0v.558M274.896 114.451v-1.674l1.336 1.674v-1.674M266.313 59.893a.713-.595 0 001.425 0v-.558a.713-.595 0 00-1.425 0v.558M268.272 58.777v1.153a.668-.558 0 001.336 0v-1.153M270.142 58.777h1.336-.668v1.674M272.012 60.563l.846-1.879M289.498 73.704l.667 1.674.668-1.674M291.368 74.82a.713-.595 0 001.425 0v-.558a.713-.595 0 00-1.425 0v.558M293.328 73.704v1.674h1.113M294.976 73.704v1.153a.668-.558 0 001.336 0v-1.153M296.846 75.378v-1.674l.779 1.209.779-1.209v1.674M298.938 74.541h1.113M300.274 73.704h-1.336v1.674h1.336M287.739 34.711h1.113M289.075 33.874h-1.336v1.674h1.336M289.61 33.874l1.336 1.674M289.61 35.548l1.336-1.674M291.481 33.874h1.336-.668v1.674M293.352 34.711h1.113M294.688 33.874h-1.336v1.674h1.336M295.222 35.548v-1.674h.734a.502-.418 0 010 .837h-.734.779l.445.837M296.957 35.548v-1.674l1.336 1.674v-1.674M299.05 35.083h1.113M298.827 35.548l.779-1.674.779 1.674M300.919 33.874v1.674h1.114M284.845 37.086v1.674M285.38 38.76v-1.674l1.336 1.674v-1.674M287.251 38.76v-1.674h.734a.501-.419 0 010 .837h-.734M288.988 37.086v1.153a.668-.558 0 001.335 0v-1.153M290.859 37.086h1.335-.668v1.674M294.155 37.086l.668 1.674.668-1.674M296.025 38.202a.713-.595 0 001.425 0v-.558a.713-.595 0 00-1.425 0v.558M297.983 37.086v1.674h1.113M299.63 37.086v1.153a.668-.558 0 001.336 0v-1.153M301.5 38.76v-1.674l.779 1.209.779-1.209v1.674M303.592 37.923h1.113M304.928 37.086h-1.336v1.674h1.336M312.251 81.704l.556 1.674.557-1.674.556 1.674.557-1.674M315.012 81.704v1.674-.837h1.336v.837-1.674M316.882 81.704v1.674M317.416 81.704h1.335-.667v1.674M319.285 82.541h1.114M320.621 81.704h-1.336v1.674h1.336M313.698 99.378v-1.674h.734a.502-.418 0 010 .837h-.734M315.435 97.704v1.674M315.97 99.378v-1.674l1.335 1.674v-1.674M317.839 97.704v1.674-.632l.379-.298.957.93-.957-.93.957-.744M336.438 40.893a.713-.595 0 001.425 0v-.558a.713-.595 0 00-1.425 0v.558M338.396 41.451v-1.674l1.336 1.674v-1.674M336.438 49.393a.713-.595 0 001.425 0v-.558a.713-.595 0 00-1.425 0v.558M338.396 49.951v-1.674l1.336 1.674v-1.674M328.437 26.114h1.114M329.773 25.277h-1.336v1.674M330.308 25.277v1.674M330.843 25.277v1.674h1.114M332.492 25.277h1.335-.667v1.674M334.361 26.114h1.114M335.697 25.277h-1.336v1.674h1.336M336.231 26.951v-1.674h.735a.502-.418 0 010 .837h-.735.779l.446.837M324.329 30.163v-1.674l.779 1.209.78-1.209v1.674M326.423 29.605a.713-.595 0 001.425 0v-.558a.713-.595 0 00-1.425 0v.558M328.382 28.489h.69a.672-.561 0 01.646.558v.558a.645-.539 0 01-.646.558h-.69v-1.674M330.253 28.489v1.153a.668-.558 0 001.336 0v-1.153M332.124 28.489v1.674h1.113M333.994 29.698h1.113M333.771 30.163l.779-1.674.78 1.674M335.864 28.489h1.335-.668v1.674M337.733 28.489v1.674M338.267 29.605a.713-.595 0 001.425 0v-.558a.713-.595 0 00-1.425 0v.558M340.225 30.163v-1.674l1.336 1.674v-1.674M325.644 60.777v1.674-.632l.378-.298.957.93-.957-.93.957-.744M327.514 61.615h1.114M328.85 60.778h-1.336v1.674h1.336M329.385 60.778l.668.837v.837-.837l.668-.837M331.991 61.615a.502-.418 0 000-.837h-.735v1.674h.846a.501-.419 0 000-.837h-.846M333.127 61.894a.713-.595 0 001.425 0v-.558a.713-.595 0 00-1.425 0v.558M335.308 61.987h1.113M335.085 62.452l.78-1.674.779 1.674M337.178 62.452v-1.674h.735a.501-.419 0 010 .837h-.735.779l.445.837M338.913 60.778h.691a.672-.561 0 01.645.558v.558a.645-.539 0 01-.645.558h-.691v-1.674M328.004 64.231a.653-.545 0 00-1.225.279v.632a.669-.559 0 001.292.205M328.606 65.105a.713-.595 0 001.425 0v-.558a.713-.595 0 00-1.425 0v.558M330.566 65.663v-1.674l1.335 1.674v-1.674M332.437 63.989h1.335-.668v1.674M334.306 65.663v-1.674h.735a.501-.419 0 010 .837h-.735.779l.446.837M336.042 65.105a.713-.595 0 001.425 0v-.558a.713-.595 0 00-1.425 0v.558M338 63.989v1.674h1.113M444.428 15.274l.667 1.674.668-1.674M446.298 16.39a.713-.595 0 001.425 0v-.558a.713-.595 0 00-1.425 0v.558M448.258 15.274v1.674h1.113M449.906 15.274v1.153a.668-.558 0 001.336 0v-1.153M451.776 16.948v-1.674l.779 1.209.779-1.209v1.674M453.868 16.111h1.113M455.204 15.274h-1.336v1.674h1.336M473.028 27.274v1.153a.668-.558 0 001.336 0v-1.153M474.899 28.948v-1.674l1.336 1.674v-1.674M476.77 27.274v1.674M478.596 27.441a.528-.441 0 00-.311-.167 1.257-1.051 0 00-.624.019.595-.497 0 00-.311.186.407-.34 0 00.2.52l.779.224a.407-.34 0 01.201.52.595-.497 0 01-.312.186 1.257-1.051 0 01-.623.019.528-.441 0 01-.312-.167M479.131 28.39a.712-.595 0 001.424 0v-.558a.712-.595 0 00-1.424 0v.558M481.089 28.948v-1.674l1.336 1.674v-1.674M481.438 40.89a.713-.595 0 001.425 0v-.558a.713-.595 0 00-1.425 0v.558M483.396 41.448v-1.674l1.336 1.674v-1.674" stroke-linecap="round" stroke-linejoin="round"/>
  <path fpd:engraving_ral_9010="1" fpd:print_element="1" fpd:visible="front" stroke-width=".4mm" stroke="#fff" vector-effect="non-scaling-stroke" fill="none" d="M488.956 128.224l.4-124.028" stroke-linecap="round" stroke-linejoin="round"/>
  <path fpd:engraving_ral_9010="1" fpd:print_element="1" fpd:visible="front" stroke-width=".2mm" stroke="#fff" vector-effect="non-scaling-stroke" fill="none" d="M497.938 113.89a.713-.595 0 001.425 0v-.558a.713-.595 0 00-1.425 0v.558M499.896 114.448v-1.674l1.336 1.674v-1.674M469.487 90.374V88.7h.735a.502-.418 0 010 .837h-.735M471.224 89.816a.713-.595 0 001.425 0v-.558a.713-.595 0 00-1.425 0v.558M473.184 88.7v1.674h1.113M474.832 88.7l.668.837v.837-.837l.668-.837M476.703 90.374V88.7h.735a.502-.418 0 010 .837h-.735M478.439 88.7v1.674-.837h1.336v.837V88.7M480.308 89.816a.713-.595 0 001.425 0v-.558a.713-.595 0 00-1.425 0v.558M482.267 90.374V88.7l1.336 1.674V88.7M484.136 88.7v1.674M485.895 88.942a.653-.545 0 00-1.225.279v.632a.669-.559 0 001.292.205M440.971 88.7l.667 1.674.668-1.674M442.841 89.816a.713-.595 0 001.425 0v-.558a.713-.595 0 00-1.425 0v.558M444.801 88.7v1.674M446.561 88.942a.653-.545 0 00-1.225.279v.632a.669-.559 0 001.291.205M447.163 89.538h1.113M448.498 88.701h-1.335v1.674h1.335M450.459 88.701h.69a.672-.561 0 01.646.558v.558a.645-.539 0 01-.646.558h-.69v-1.674M452.329 89.538h1.113M453.665 88.701h-1.336v1.674h1.336M454.199 88.701h1.335-.668v1.674M456.068 88.701v1.153a.668-.558 0 001.336 0v-1.153M457.938 90.375v-1.674l1.336 1.674v-1.674M459.808 89.538h1.113M461.144 88.701h-1.336v1.674h1.336M454.768 76.89a.713-.595 0 001.425 0v-.558a.713-.595 0 00-1.425 0v.558M456.726 77.448v-1.674l1.336 1.674v-1.674M447.159 64.483h1.113M446.936 64.948l.78-1.674.779 1.674M449.03 64.111h1.158M451.39 63.274l-.668 1.395h1.114-.223v-.279.558M453.037 63.274l-.667 1.395h1.113-.223v-.279.558M454.017 63.72v.782a.579-.484 0 001.157 0v-.782a.579-.484 0 00-1.157 0" stroke-linecap="round" stroke-linejoin="round"/>
  <path fpd:engraving_ral_9010="1" fpd:print_element="1" fpd:visible="front" stroke-width=".4mm" stroke="#fff" vector-effect="non-scaling-stroke" fill="none" d="M38.017 5.348v122.896" stroke-linecap="round" stroke-linejoin="round"/>
  <path fpd:engraving_ral_9010="1" fpd:print_element="1" fpd:visible="front" stroke-width=".2mm" stroke="#fff" vector-effect="non-scaling-stroke" fill="none" d="M347.707 15.512a.653-.545 0 00-1.225.279v.632a.669-.559 0 001.292.205M348.309 15.271v1.153a.668-.558 0 001.336 0v-1.153M350.18 15.271h1.336-.668v1.674M352.051 16.387a.713-.595 0 001.425 0v-.558a.713-.595 0 00-1.425 0v.558M354.01 16.108h1.114M355.346 15.271h-1.336v1.674M355.881 16.108h1.114M357.217 15.271h-1.336v1.674M359.178 16.108h1.113M360.514 15.271h-1.336v1.674M361.049 16.945v-1.674h.734a.501-.419 0 010 .837h-.734.779l.445.837M362.784 16.108h1.114M364.12 15.271h-1.336v1.674h1.336M364.654 16.387a.713-.595 0 001.425 0v-.558a.713-.595 0 00-1.425 0v.558M365.589 16.573l.49.409M366.612 15.272v1.153a.668-.558 0 001.336 0v-1.153M368.482 16.109h1.113M369.818 15.272h-1.336v1.674h1.336M370.352 16.946v-1.674l1.336 1.674v-1.674M373.446 15.514a.653-.545 0 00-1.224.279v.632a.669-.559 0 001.291.205M374.047 15.273l.668.837v.837-.837l.668-.837M383.279 16.107h1.113M384.615 15.27h-1.336v1.674h1.336M385.15 16.944V15.27l.779 1.209.779-1.209v1.674M387.243 16.944V15.27h.735a.502-.418 0 010 .837h-.735M388.98 15.27v1.674-.837h1.336v.837-1.674M391.073 16.479h1.113M390.85 16.944l.779-1.674.779 1.674M394.234 15.437a.528-.441 0 00-.312-.167 1.257-1.051 0 00-.623.019.595-.497 0 00-.312.186.407-.34 0 00.2.52l.779.224a.407-.34 0 01.201.52.595-.497 0 01-.312.186 1.257-1.051 0 01-.623.019.528-.441 0 01-.312-.167M394.768 15.27v1.674M396.593 15.437a.528-.441 0 00-.312-.167 1.257-1.051 0 00-.623.019.595-.497 0 00-.312.186.407-.34 0 00.201.52l.779.224a.407-.34 0 01.2.52.595-.497 0 01-.312.186 1.257-1.051 0 01-.623.019.528-.441 0 01-.312-.167M413.963 12.979h1.113M413.74 13.444l.779-1.674.779 1.674M415.833 13.444V11.77l.78 1.209.779-1.209v1.674M417.927 12.886a.713-.595 0 001.425 0v-.558a.713-.595 0 00-1.425 0v.558M419.885 11.77v1.153a.668-.558 0 001.336 0V11.77M421.755 13.444V11.77l1.336 1.674V11.77M423.625 11.77h1.336-.668v1.674M410.434 16.098a.713-.595 0 001.425 0v-.558a.713-.595 0 00-1.425 0v.558M412.393 15.819h1.113M413.729 14.982h-1.336v1.674M416.914 15.224a.653-.545 0 00-1.224.279v.632a.669-.559 0 001.291.205M417.516 16.098a.713-.595 0 001.425 0v-.558a.713-.595 0 00-1.425 0v.558M419.476 16.656v-1.674l1.336 1.674v-1.674M421.346 14.982h1.335-.667v1.674M423.215 16.098a.713-.595 0 001.425 0v-.558a.713-.595 0 00-1.425 0v.558M425.174 14.982v1.153a.668-.558 0 001.335 0v-1.153M427.043 16.656v-1.674h.735a.501-.419 0 010 .837h-.735.78l.445.837" stroke-linecap="round" stroke-linejoin="round"/>
  <path fpd:engraving_ral_9010="1" fpd:print_element="1" fpd:visible="front" stroke-width=".4mm" stroke="#fff" vector-effect="non-scaling-stroke" fill="none" d="M384.531 8.643h1.334M386.132 7.437h-1.601v2.411M386.773 7.437v2.411M387.414 7.437v2.411h1.334M389.389 7.437h1.601-.801v2.411M391.63 8.643h1.334M393.231 7.437h-1.601v2.411h1.601M393.871 9.848V7.437h.88a.6.603 0 010 1.206h-.88.934l.533 1.205" stroke-linecap="round" stroke-linejoin="round"/>
  <path fpd:engraving_ral_9010="1" fpd:print_element="1" fpd:visible="front" stroke-width=".2mm" stroke="#fff" vector-effect="non-scaling-stroke" fill="none" d="M351.713 53.079h1.114M351.491 53.544l.779-1.674.779 1.674M353.584 51.87h1.336-.668v1.674M355.455 51.87h1.336-.668v1.674M357.549 53.079h1.113M357.326 53.544l.779-1.674.78 1.674M360.644 52.112a.653-.545 0 00-1.224.279v.632a.669-.559 0 001.291.205M361.245 51.871v1.674-.632l.379-.298.957.93-.957-.93.957-.744M364.539 51.872h1.336-.668v1.674M366.409 51.872v1.674M366.943 53.546v-1.674l.779 1.209.779-1.209v1.674M369.035 52.709h1.113M370.371 51.872h-1.336v1.674h1.336M381.547 51.87h.69a.672-.561 0 01.646.558v.558a.645-.539 0 01-.646.558h-.69V51.87M383.418 52.707h1.113M384.754 51.87h-1.336v1.674h1.336M386.513 52.112a.653-.545 0 00-1.224.279v.632a.669-.559 0 001.291.205M387.338 53.08h1.113M387.115 53.545l.78-1.674.779 1.674M389.209 51.871l.668.837v.837-.837l.668-.837M392.503 51.871h1.336-.668v1.674M394.373 51.871v1.674M394.907 53.545v-1.674l.779 1.209.779-1.209v1.674M396.999 52.708h1.113M398.335 51.871h-1.336v1.674h1.336M409.816 52.037a.528-.441 0 00-.312-.167 1.257-1.051 0 00-.623.019.595-.497 0 00-.312.186.407-.34 0 00.2.52l.78.224a.407-.34 0 01.2.52.595-.497 0 01-.312.186 1.257-1.051 0 01-.623.019.528-.441 0 01-.312-.167M410.351 51.87v1.153a.668-.558 0 001.336 0V51.87M413.513 52.037a.528-.441 0 00-.311-.167 1.257-1.051 0 00-.624.019.595-.497 0 00-.311.186.407-.34 0 00.2.52l.779.224a.407-.34 0 01.201.52.595-.497 0 01-.312.186 1.257-1.051 0 01-.623.019.528-.441 0 01-.312-.167M414.049 51.87h1.336-.668v1.674M416.142 53.079h1.113M415.92 53.544l.779-1.674.779 1.674M418.013 51.87v1.674M418.548 53.544V51.87l1.336 1.674V51.87M421.842 51.87v1.674h1.114M423.489 52.707h1.114M424.825 51.87h-1.336v1.674h1.336M425.359 51.87l.668 1.674.668-1.674M427.229 52.707h1.113M428.565 51.87h-1.336v1.674h1.336M429.099 51.87v1.674h1.113M351.713 93.909h1.114M351.491 94.374l.779-1.674.779 1.674M353.584 92.7h1.336-.668v1.674M355.455 92.7h1.336-.668v1.674M357.549 93.909h1.113M357.326 94.374l.779-1.674.78 1.674M360.644 92.942a.653-.545 0 00-1.224.279v.632a.669-.559 0 001.291.205M361.245 92.701v1.674-.632l.379-.298.957.93-.957-.93.957-.744M364.539 92.702h1.336-.668v1.674M366.409 92.702v1.674M366.943 94.376v-1.674l.779 1.209.779-1.209v1.674M369.035 93.539h1.113M370.371 92.702h-1.336v1.674h1.336M381.547 92.7h.69a.672-.561 0 01.646.558v.558a.645-.539 0 01-.646.558h-.69V92.7M383.418 93.537h1.113M384.754 92.7h-1.336v1.674h1.336M386.513 92.942a.653-.545 0 00-1.224.279v.632a.669-.559 0 001.291.205M387.338 93.91h1.113M387.115 94.375l.78-1.674.779 1.674M389.209 92.701l.668.837v.837-.837l.668-.837M392.503 92.701h1.336-.668v1.674M394.373 92.701v1.674M394.907 94.375v-1.674l.779 1.209.779-1.209v1.674M396.999 93.538h1.113M398.335 92.701h-1.336v1.674h1.336M409.816 92.867a.528-.441 0 00-.312-.167 1.257-1.051 0 00-.623.019.595-.497 0 00-.312.186.407-.34 0 00.2.52l.78.224a.407-.34 0 01.2.52.595-.497 0 01-.312.186 1.257-1.051 0 01-.623.019.528-.441 0 01-.312-.167M410.351 92.7v1.153a.668-.558 0 001.336 0V92.7M413.513 92.867a.528-.441 0 00-.311-.167 1.257-1.051 0 00-.624.019.595-.497 0 00-.311.186.407-.34 0 00.2.52l.779.224a.407-.34 0 01.201.52.595-.497 0 01-.312.186 1.257-1.051 0 01-.623.019.528-.441 0 01-.312-.167M414.049 92.7h1.336-.668v1.674M416.142 93.909h1.113M415.92 94.374l.779-1.674.779 1.674M418.013 92.7v1.674M418.548 94.374V92.7l1.336 1.674V92.7M421.842 92.7v1.674h1.114M423.489 93.537h1.114M424.825 92.7h-1.336v1.674h1.336M425.359 92.7l.668 1.674.668-1.674M427.229 93.537h1.113M428.565 92.7h-1.336v1.674h1.336M429.099 92.7v1.674h1.113" stroke-linecap="round" stroke-linejoin="round"/>
  <path fpd:engraving_ral_9010="1" fpd:print_element="1" fpd:visible="front" stroke-width=".4mm" stroke="#fff" vector-effect="non-scaling-stroke" fill="none" d="M435.445 85.77H333.001M368.931 86.937v2.411h1.334M370.906 88.544a.854.857 0 001.707 0v-.803a.854.857 0 00-1.707 0v.803M373.254 86.937v1.661a.8.805 0 001.601 0v-1.661M375.496 86.937h.827a.805.808 0 01.774.804v.803a.773.776 0 01-.774.804h-.827v-2.411M377.738 89.348v-2.411l1.601 2.411v-2.411M379.98 88.142h1.334M381.581 86.937h-1.601v2.411h1.601M383.77 87.178a.633.636 0 00-.374-.241 1.507 1.513 0 00-.747.027.713.716 0 00-.373.268.488.49 0 00.24.75l.934.321a.488.49 0 01.24.75.713.716 0 01-.374.268 1.507 1.513 0 01-.747.027.633.636 0 01-.373-.241M385.958 87.178a.633.636 0 00-.374-.241 1.507 1.513 0 00-.747.027.713.716 0 00-.373.268.488.49 0 00.24.75l.934.321a.488.49 0 01.24.75.713.716 0 01-.374.268 1.507 1.513 0 01-.747.027.633.636 0 01-.373-.241M389.772 87.285a.782.786 0 00-1.467.402v.911a.802.805 0 001.547.295M390.492 88.544a.854.857 0 001.708 0v-.803a.854.857 0 00-1.708 0v.803M392.84 89.348v-2.411l1.601 2.411v-2.411M395.081 86.937h1.601-.801v2.411M397.322 88.544a.854.857 0 001.707 0v-.803a.854.857 0 00-1.707 0v.803M399.669 86.937v1.661a.8.805 0 001.601 0v-1.661M401.91 89.348v-2.411h.881a.6.603 0 010 1.205h-.881.934l.534 1.206" stroke-linecap="round" stroke-linejoin="round"/>
  <path fpd:engraving_ral_9010="1" fpd:print_element="1" fpd:visible="front" stroke-width=".2mm" stroke="#fff" vector-effect="non-scaling-stroke" fill="none" d="M468.402 16.944V15.27l.779 1.209.78-1.209v1.674M470.718 16.479h1.113M470.496 16.944l.779-1.674.779 1.674M472.589 15.27v1.674M473.124 16.944V15.27l1.336 1.674V15.27M476.421 16.386a.713-.595 0 001.425 0v-.558a.713-.595 0 00-1.425 0v.558M478.379 15.27v1.153a.668-.558 0 001.336 0V15.27M480.249 15.27h1.336-.668v1.674M482.118 16.944V15.27h.735a.502-.418 0 010 .837h-.735M483.854 15.27v1.153a.668-.558 0 001.336 0V15.27M485.724 15.27h1.336-.668v1.674M53.802 139.59a.419-.419 0 000-.837h-.615v1.675h.708a.419-.419 0 000-.838h-.708M54.751 139.59h.931M55.868 138.753h-1.117v1.675h1.117M56.314 140.428v-1.675l1.117 1.675v-1.675M57.877 138.753h.577a.561-.561 0 01.54.558v.559a.539-.539 0 01-.54.558h-.577v-1.675M52.331 143.642v-1.675h.615a.419-.419 0 010 .837h-.615.652l.372.838M53.969 143.177h.931M53.783 143.642l.652-1.675.651 1.675M55.533 143.642v-1.675l1.117 1.675v-1.675M57.878 142.804h.409v.28a.596-.596 0 01-1.191 0v-.559a.574-.574 0 011.061-.316M58.733 142.803h.931M59.85 141.966h-1.117v1.675h1.117M74.122 139.59h.409v.28a.596-.596 0 01-1.191 0v-.559a.574-.574 0 011.061-.316M74.978 138.753v1.675h.931M76.356 138.753v1.675M76.802 138.753h.577a.561-.561 0 01.54.558v.559a.539-.539 0 01-.54.558h-.577v-1.675M78.365 139.591h.931M79.482 138.754h-1.117v1.675h1.117M96.771 138.753h.577a.561-.561 0 01.54.558v.559a.539-.539 0 01-.54.558h-.577v-1.675M98.335 139.591h.931M99.452 138.754h-1.117v1.675h1.117M100.923 138.996a.546-.546 0 00-1.024.279v.633a.559-.559 0 001.08.205M101.611 139.965h.931M101.425 140.43l.652-1.675.651 1.675M103.174 138.755l.559.838v.837-.837l.558-.838M34.742 139.59a.419-.419 0 000-.837h-.615v1.675h.708a.419-.419 0 000-.838h-.708M35.691 139.59h.931M36.808 138.753h-1.117v1.675h1.117M37.254 140.428v-1.675l1.117 1.675v-1.675M38.817 138.753h.577a.561-.561 0 01.54.558v.559a.539-.539 0 01-.54.558h-.577v-1.675M120.129 138.753v1.675h.931M121.507 139.59h.931M122.624 138.753h-1.117v1.675h1.117M123.853 139.59h.409v.28a.596-.596 0 01-1.191 0v-.559a.574-.574 0 011.061-.316M124.895 139.963h.931M124.709 140.428l.652-1.675.651 1.675M126.458 138.753h1.117-.558v1.675M128.021 139.87a.596-.596 0 001.191 0v-.559a.596-.596 0 00-1.191 0v.559M149.091 139.59a.419-.419 0 000-.837h-.614v1.675h.708a.419-.419 0 000-.838h-.708M150.041 139.59h.931M151.158 138.753h-1.117v1.675h1.117M151.604 140.428v-1.675l1.117 1.675v-1.675M153.167 138.753h.577a.561-.561 0 01.54.558v.559a.539-.539 0 01-.54.558h-.577v-1.675M41.438 133.996a.713-.595 0 001.425 0v-.558a.713-.595 0 00-1.425 0v.558M43.396 134.554v-1.674l1.336 1.674v-1.674M80.938 133.996a.713-.595 0 001.425 0v-.558a.713-.595 0 00-1.425 0v.558M82.896 134.554v-1.674l1.336 1.674v-1.674M104.938 133.996a.713-.595 0 001.425 0v-.558a.713-.595 0 00-1.425 0v.558M106.896 134.554v-1.674l1.336 1.674v-1.674M129.438 133.996a.713-.595 0 001.425 0v-.558a.713-.595 0 00-1.425 0v.558M131.396 134.554v-1.674l1.336 1.674v-1.674" stroke-linecap="round" stroke-linejoin="round"/>
  <path fpd:engraving_ral_9010="1" fpd:print_element="1" fpd:visible="front" stroke-width=".4mm" stroke="#fff" vector-effect="non-scaling-stroke" fill="none" d="M332.985 31.244v28.5M332.97 66.244v62.2M332.97 3.147v20.096" stroke-linecap="round" stroke-linejoin="round"/>
  <path fpd:engraving_ral_9010="1" fpd:print_element="1" fpd:visible="front" stroke-width=".2mm" stroke="#fff" vector-effect="non-scaling-stroke" fill="none" d="M179.438 33.393a.713-.595 0 001.425 0v-.558a.713-.595 0 00-1.425 0v.558M181.396 33.951v-1.674l1.336 1.674v-1.674" stroke-linecap="round" stroke-linejoin="round"/>
  <path fpd:engraving_ral_9010="1" fpd:print_element="1" fpd:visible="front" stroke-width=".4mm" stroke="#fff" vector-effect="non-scaling-stroke" fill="none" d="M279.877 90.474h-6.878M267.002 108.254h-9.004M267.002 71.544h-9.004M267.002 35.864h-9.004M279.877 53.644h-6.878M60.232 60.414h1.176M61.87 59.952a.347-.347 0 01.336-.378.366-.366 0 01.336.546l-.672 1.134h.714M60.402 46.964h1.176M62.04 46.544l.378-.42v1.68M73.532 40.62a.378-.378 0 00.756 0v-.924a.378-.378 0 00-.756 0v.924M84.921 46.545l.378-.42v1.68M84.752 59.957a.347-.347 0 01.336-.378.366-.366 0 01.336.546l-.672 1.134h.714M85.746 53.644H62.074M79.917 63.918L67.903 43.37M67.903 63.918L79.917 43.37M84.183 59.651L63.637 47.637M63.637 59.651l20.546-12.014M73.939 41.808v11.836M372.766 35.864h-23.672M366.937 46.138L354.923 25.59M354.923 46.138l12.014-20.548M371.203 41.871l-20.546-12.014M350.657 41.871l20.546-12.014M360.959 24.028v11.836M347.254 42.634h1.176M349.438 41.794l-.546 1.26h.714M349.438 42.634v.84M347.252 29.184h1.176M348.89 28.722a.347-.347 0 01.336-.378.366-.366 0 01.336.546l-.672 1.134h.714M360.552 22.84a.378-.378 0 00.756 0v-.924a.378-.378 0 00-.756 0v.924M371.772 28.723a.347-.347 0 01.336-.378.366-.366 0 01.336.546l-.672 1.134h.714M372.319 41.799l-.546 1.26h.714M372.319 42.639v.84M401.776 35.864h-23.672M395.947 46.138L383.933 25.59M383.933 46.138l12.014-20.548M400.213 41.871l-20.546-12.014M379.667 41.871l20.546-12.014M389.969 24.028v11.836M383.402 23.377l-.546 1.26h.714M383.402 24.217v.84M376.13 35.402a.347-.347 0 01.336-.378.366-.366 0 01.336.546l-.672 1.134h.714M382.835 47.973a.378-.378 0 00.756 0v-.924a.378-.378 0 00-.756 0v.924M395.857 47.091l.378-.42v1.68M396.711 47.973a.378-.378 0 00.756 0v-.924a.378-.378 0 00-.756 0v.924M403.387 36.704a.362-.362 0 00.364-.364v-.126a.355-.355 0 00-.364-.35.334-.334 0 00.336-.336v-.168a.336-.336 0 00-.672 0v.168a.334-.334 0 00.336.336.355-.355 0 00-.364.35v.126a.362-.362 0 00.364.364M397.02 23.755a.371-.371 0 00-.336-.378.347-.347 0 00-.378.336v1.008a.377-.377 0 00.336.336.371-.371 0 00.378-.336v-.336a.378-.378 0 00-.714-.126M431.186 35.864h-23.672M425.357 46.138L413.343 25.59M413.343 46.138l12.014-20.548M429.623 41.871l-20.546-12.014M409.077 41.871l20.546-12.014M419.379 24.028v11.836M412.812 23.377l-.546 1.26h.714M412.812 24.217v.84M405.54 35.402a.347-.347 0 01.336-.378.366-.366 0 01.336.546l-.672 1.134h.714M412.245 47.973a.378-.378 0 00.756 0v-.924a.378-.378 0 00-.756 0v.924M425.267 47.091l.378-.42v1.68M426.121 47.973a.378-.378 0 00.756 0v-.924a.378-.378 0 00-.756 0v.924M432.797 36.704a.362-.362 0 00.364-.364v-.126a.355-.355 0 00-.364-.35.334-.334 0 00.336-.336v-.168a.336-.336 0 00-.672 0v.168a.334-.334 0 00.336.336.355-.355 0 00-.364.35v.126a.362-.362 0 00.364.364M426.43 23.755a.371-.371 0 00-.336-.378.347-.347 0 00-.378.336v1.008a.377-.377 0 00.336.336.371-.371 0 00.378-.336v-.336a.378-.378 0 00-.714-.126M462.896 35.864h-23.672M457.067 46.138L445.053 25.59M445.053 46.138l12.014-20.548M461.333 41.871l-20.546-12.014M440.787 41.871l20.546-12.014M451.089 24.028v11.836M444.522 23.377l-.546 1.26h.714M444.522 24.217v.84M437.25 35.402a.347-.347 0 01.336-.378.366-.366 0 01.336.546l-.672 1.134h.714M443.955 47.973a.378-.378 0 00.756 0v-.924a.378-.378 0 00-.756 0v.924M456.977 47.091l.378-.42v1.68M457.831 47.973a.378-.378 0 00.756 0v-.924a.378-.378 0 00-.756 0v.924M464.507 36.704a.362-.362 0 00.364-.364v-.126a.355-.355 0 00-.364-.35.334-.334 0 00.336-.336v-.168a.336-.336 0 00-.672 0v.168a.334-.334 0 00.336.336.355-.355 0 00-.364.35v.126a.362-.362 0 00.364.364M458.14 23.755a.371-.371 0 00-.336-.378.347-.347 0 00-.378.336v1.008a.377-.377 0 00.336.336.371-.371 0 00.378-.336v-.336a.378-.378 0 00-.714-.126M431.186 71.544h-23.672M425.357 81.818L413.343 61.27M413.343 81.818l12.014-20.548M429.623 77.551l-20.546-12.014M409.077 77.551l20.546-12.014M419.379 59.708v11.836M412.812 59.057l-.546 1.26h.714M412.812 59.897v.84M405.54 71.082a.347-.347 0 01.336-.378.366-.366 0 01.336.546l-.672 1.134h.714M412.245 83.653a.378-.378 0 00.756 0v-.924a.378-.378 0 00-.756 0v.924M425.267 82.771l.378-.42v1.68M426.121 83.653a.378-.378 0 00.756 0v-.924a.378-.378 0 00-.756 0v.924M432.797 72.384a.362-.362 0 00.364-.364v-.126a.355-.355 0 00-.364-.35.334-.334 0 00.336-.336v-.168a.336-.336 0 00-.672 0v.168a.334-.334 0 00.336.336.355-.355 0 00-.364.35v.126a.362-.362 0 00.364.364M426.43 59.435a.371-.371 0 00-.336-.378.347-.347 0 00-.378.336v1.008a.377-.377 0 00.336.336.371-.371 0 00.378-.336v-.336a.378-.378 0 00-.714-.126M431.186 108.254h-23.672M425.357 118.528L413.343 97.98M413.343 118.528l12.014-20.548M429.623 114.261l-20.546-12.014M409.077 114.261l20.546-12.014M419.379 96.418v11.836M412.812 95.767l-.546 1.26h.714M412.812 96.607v.84M405.54 107.792a.347-.347 0 01.336-.378.366-.366 0 01.336.546l-.672 1.134h.714M412.245 120.363a.378-.378 0 00.756 0v-.924a.378-.378 0 00-.756 0v.924M425.267 119.481l.378-.42v1.68M426.121 120.363a.378-.378 0 00.756 0v-.924a.378-.378 0 00-.756 0v.924M432.797 109.094a.362-.362 0 00.364-.364v-.126a.355-.355 0 00-.364-.35.334-.334 0 00.336-.336v-.168a.336-.336 0 00-.672 0v.168a.334-.334 0 00.336.336.355-.355 0 00-.364.35v.126a.362-.362 0 00.364.364M426.43 96.145a.371-.371 0 00-.336-.378.347-.347 0 00-.378.336v1.008a.377-.377 0 00.336.336.371-.371 0 00.378-.336v-.336a.378-.378 0 00-.714-.126M462.896 108.254h-23.672M457.067 118.528L445.053 97.98M445.053 118.528l12.014-20.548M461.333 114.261l-20.546-12.014M440.787 114.261l20.546-12.014M451.089 96.418v11.836M444.522 95.767l-.546 1.26h.714M444.522 96.607v.84M437.25 107.792a.347-.347 0 01.336-.378.366-.366 0 01.336.546l-.672 1.134h.714M443.955 120.363a.378-.378 0 00.756 0v-.924a.378-.378 0 00-.756 0v.924M456.977 119.481l.378-.42v1.68M457.831 120.363a.378-.378 0 00.756 0v-.924a.378-.378 0 00-.756 0v.924M464.507 109.094a.362-.362 0 00.364-.364v-.126a.355-.355 0 00-.364-.35.334-.334 0 00.336-.336v-.168a.336-.336 0 00-.672 0v.168a.334-.334 0 00.336.336.355-.355 0 00-.364.35v.126a.362-.362 0 00.364.364M458.14 96.145a.371-.371 0 00-.336-.378.347-.347 0 00-.378.336v1.008a.377-.377 0 00.336.336.371-.371 0 00.378-.336v-.336a.378-.378 0 00-.714-.126M67.956 91.864H44.284M62.127 102.138L50.113 81.59M50.113 102.138L62.127 81.59M66.393 97.871L45.847 85.857M45.847 97.871l20.546-12.014M56.149 80.028v11.836M49.582 79.377l-.546 1.26h.714M49.582 80.217v.84M42.31 91.402a.347-.347 0 01.336-.378.366-.366 0 01.336.546l-.672 1.134h.714M49.015 103.973a.378-.378 0 00.756 0v-.924a.378-.378 0 00-.756 0v.924M62.037 103.091l.378-.42v1.68M62.891 103.973a.378-.378 0 00.756 0v-.924a.378-.378 0 00-.756 0v.924M69.567 92.704a.362-.362 0 00.364-.364v-.126a.355-.355 0 00-.364-.35.334-.334 0 00.336-.336v-.168a.336-.336 0 00-.672 0v.168a.334-.334 0 00.336.336.355-.355 0 00-.364.35v.126a.362-.362 0 00.364.364M63.2 79.755a.371-.371 0 00-.336-.378.347-.347 0 00-.378.336v1.008a.377-.377 0 00.336.336.371-.371 0 00.378-.336v-.336a.378-.378 0 00-.714-.126M103.526 91.864H79.854M97.697 102.138L85.683 81.59M85.683 102.138L97.697 81.59M101.963 97.871L81.417 85.857M81.417 97.871l20.546-12.014M91.719 80.028v11.836M85.152 79.377l-.546 1.26h.714M85.152 80.217v.84M77.88 91.402a.347-.347 0 01.336-.378.366-.366 0 01.336.546l-.672 1.134h.714M84.585 103.973a.378-.378 0 00.756 0v-.924a.378-.378 0 00-.756 0v.924M97.607 103.091l.378-.42v1.68M98.461 103.973a.378-.378 0 00.756 0v-.924a.378-.378 0 00-.756 0v.924M105.137 92.704a.362-.362 0 00.364-.364v-.126a.355-.355 0 00-.364-.35.334-.334 0 00.336-.336v-.168a.336-.336 0 00-.672 0v.168a.334-.334 0 00.336.336.355-.355 0 00-.364.35v.126a.362-.362 0 00.364.364M98.77 79.755a.371-.371 0 00-.336-.378.347-.347 0 00-.378.336v1.008a.377-.377 0 00.336.336.371-.371 0 00.378-.336v-.336a.378-.378 0 00-.714-.126M254.646 35.864h-23.672M248.817 46.138L236.803 25.59M236.803 46.138l12.014-20.548M253.083 41.871l-20.546-12.014M232.537 41.871l20.546-12.014M242.839 24.028v11.836M236.272 23.377l-.546 1.26h.714M236.272 24.217v.84M229 35.402a.347-.347 0 01.336-.378.366-.366 0 01.336.546L229 36.704h.714M235.705 47.973a.378-.378 0 00.756 0v-.924a.378-.378 0 00-.756 0v.924M248.727 47.091l.378-.42v1.68M249.581 47.973a.378-.378 0 00.756 0v-.924a.378-.378 0 00-.756 0v.924M256.257 36.704a.362-.362 0 00.364-.364v-.126a.355-.355 0 00-.364-.35.334-.334 0 00.336-.336v-.168a.336-.336 0 00-.672 0v.168a.334-.334 0 00.336.336.355-.355 0 00-.364.35v.126a.362-.362 0 00.364.364M249.89 23.755a.371-.371 0 00-.336-.378.347-.347 0 00-.378.336v1.008a.377-.377 0 00.336.336.371-.371 0 00.378-.336v-.336a.378-.378 0 00-.714-.126M254.646 71.544h-23.672M248.817 81.818L236.803 61.27M236.803 81.818l12.014-20.548M253.083 77.551l-20.546-12.014M232.537 77.551l20.546-12.014M242.839 59.708v11.836M236.272 59.057l-.546 1.26h.714M236.272 59.897v.84M229 71.082a.347-.347 0 01.336-.378.366-.366 0 01.336.546L229 72.384h.714M235.705 83.653a.378-.378 0 00.756 0v-.924a.378-.378 0 00-.756 0v.924M248.727 82.771l.378-.42v1.68M249.581 83.653a.378-.378 0 00.756 0v-.924a.378-.378 0 00-.756 0v.924M256.257 72.384a.362-.362 0 00.364-.364v-.126a.355-.355 0 00-.364-.35.334-.334 0 00.336-.336v-.168a.336-.336 0 00-.672 0v.168a.334-.334 0 00.336.336.355-.355 0 00-.364.35v.126a.362-.362 0 00.364.364M249.89 59.435a.371-.371 0 00-.336-.378.347-.347 0 00-.378.336v1.008a.377-.377 0 00.336.336.371-.371 0 00.378-.336v-.336a.378-.378 0 00-.714-.126M254.646 108.254h-23.672M248.817 118.528L236.803 97.98M236.803 118.528l12.014-20.548M253.083 114.261l-20.546-12.014M232.537 114.261l20.546-12.014M242.839 96.418v11.836M236.272 95.767l-.546 1.26h.714M236.272 96.607v.84M229 107.792a.347-.347 0 01.336-.378.366-.366 0 01.336.546l-.672 1.134h.714M235.705 120.363a.378-.378 0 00.756 0v-.924a.378-.378 0 00-.756 0v.924M248.727 119.481l.378-.42v1.68M249.581 120.363a.378-.378 0 00.756 0v-.924a.378-.378 0 00-.756 0v.924M256.257 109.094a.362-.362 0 00.364-.364v-.126a.355-.355 0 00-.364-.35.334-.334 0 00.336-.336v-.168a.336-.336 0 00-.672 0v.168a.334-.334 0 00.336.336.355-.355 0 00-.364.35v.126a.362-.362 0 00.364.364M249.89 96.145a.371-.371 0 00-.336-.378.347-.347 0 00-.378.336v1.008a.377-.377 0 00.336.336.371-.371 0 00.378-.336v-.336a.378-.378 0 00-.714-.126M306.716 53.644h-23.672M300.887 63.918L288.873 43.37M288.873 63.918l12.014-20.548M305.153 59.651l-20.546-12.014M284.607 59.651l20.546-12.014M294.909 41.808v11.836M288.342 41.157l-.546 1.26h.714M288.342 41.997v.84M281.07 53.182a.347-.347 0 01.336-.378.366-.366 0 01.336.546l-.672 1.134h.714M287.775 65.753a.378-.378 0 00.756 0v-.924a.378-.378 0 00-.756 0v.924M300.797 64.871l.378-.42v1.68M301.651 65.753a.378-.378 0 00.756 0v-.924a.378-.378 0 00-.756 0v.924M308.327 54.484a.362-.362 0 00.364-.364v-.126a.355-.355 0 00-.364-.35.334-.334 0 00.336-.336v-.168a.336-.336 0 00-.672 0v.168a.334-.334 0 00.336.336.355-.355 0 00-.364.35v.126a.362-.362 0 00.364.364M301.96 41.535a.371-.371 0 00-.336-.378.347-.347 0 00-.378.336v1.008a.377-.377 0 00.336.336.371-.371 0 00.378-.336v-.336a.378-.378 0 00-.714-.126M306.716 90.474h-23.672M300.887 100.748L288.873 80.2M288.873 100.748L300.887 80.2M305.153 96.481l-20.546-12.014M284.607 96.481l20.546-12.014M294.909 78.638v11.836M288.342 77.987l-.546 1.26h.714M288.342 78.827v.84M281.07 90.012a.347-.347 0 01.336-.378.366-.366 0 01.336.546l-.672 1.134h.714M287.775 102.583a.378-.378 0 00.756 0v-.924a.378-.378 0 00-.756 0v.924M300.797 101.701l.378-.42v1.68M301.651 102.583a.378-.378 0 00.756 0v-.924a.378-.378 0 00-.756 0v.924M308.327 91.314a.362-.362 0 00.364-.364v-.126a.355-.355 0 00-.364-.35.334-.334 0 00.336-.336v-.168a.336-.336 0 00-.672 0v.168a.334-.334 0 00.336.336.355-.355 0 00-.364.35v.126a.362-.362 0 00.364.364M301.96 78.365a.371-.371 0 00-.336-.378.347-.347 0 00-.378.336v1.008a.377-.377 0 00.336.336.371-.371 0 00.378-.336v-.336a.378-.378 0 00-.714-.126M361.034 71.579h-11.94M366.937 81.818L354.923 61.27M354.923 81.818l12.014-20.548M350.659 65.538l10.26 6.016M360.964 71.554l10.712-5.4M360.959 59.708v11.836M360.94 71.523l-11.714 2.6M360.932 71.586l8.758-8.314M360.95 71.524l12-1.418M360.949 71.54l-10.92 4.994M361.055 71.608l11.412 3.504M348.54 84.122v-1.68l.546 1.176.546-1.176v1.68M350.108 83.282h1.176M351.76 83.702a.42-.42 0 00.84 0 .418-.418 0 00-.42-.42.42-.42 0 010-.84.418-.418 0 01.42.42M353.832 82.442h-.756v1.68h.756M353.076 83.282h.63M355.036 82.806a.364-.364 0 00-.728 0v.952a.364-.364 0 00.728 0M355.512 84.122v-.084M347.596 77.23l.378-.42v1.68M348.45 78.112a.378-.378 0 00.756 0v-.924a.378-.378 0 00-.756 0v.924M345.123 71.09a.347-.347 0 01.336-.378.366-.366 0 01.336.546l-.672 1.134h.714M346.313 72.014a.378-.378 0 00.756 0v-.924a.378-.378 0 00-.756 0v.924M347.545 72.014a.378-.378 0 00.756 0v-.924a.378-.378 0 00-.756 0v.924M353.652 59.344a.371-.371 0 00-.336-.378.347-.347 0 00-.378.336v1.008a.377-.377 0 00.336.336.371-.371 0 00.378-.336v-.336a.378-.378 0 00-.714-.126M354.128 60.268a.378-.378 0 00.756 0v-.924a.378-.378 0 00-.756 0v.924M355.36 60.268a.378-.378 0 00.756 0v-.924a.378-.378 0 00-.756 0v.924M367.331 59.785l.378-.42v1.68M373.108 64.731h-.63v.714a.342-.342 0 01.63.21v.42a.349-.349 0 01-.336.336.392-.392 0 01-.378-.378M373.129 75.295l.378-.42v1.68M373.983 76.177a.378-.378 0 00.756 0v-.924a.378-.378 0 00-.756 0v.924M365.776 83.697a.42-.42 0 00.84 0 .418-.418 0 00-.42-.42.42-.42 0 010-.84.418-.418 0 01.42.42M367.848 82.437h-.756v1.68h.756M367.092 83.277h.63M369.052 82.801a.364-.364 0 00-.728 0v.952a.364-.364 0 00.728 0M369.528 84.117v-.084M390.044 71.579h-11.94M395.947 81.818L383.933 61.27M383.933 81.818l12.014-20.548M379.669 65.538l10.26 6.016M389.974 71.554l10.712-5.4M389.969 59.708v11.836M389.95 71.523l-11.714 2.6M389.942 71.586l8.758-8.314M389.96 71.524l12-1.418M389.959 71.54l-10.92 4.994M390.065 71.608l11.412 3.504M377.55 84.122v-1.68l.546 1.176.546-1.176v1.68M379.118 83.282h1.176M380.77 83.702a.42-.42 0 00.84 0 .418-.418 0 00-.42-.42.42-.42 0 010-.84.418-.418 0 01.42.42M382.842 82.442h-.756v1.68h.756M382.086 83.282h.63M384.046 82.806a.364-.364 0 00-.728 0v.952a.364-.364 0 00.728 0M384.522 84.122v-.084M376.606 77.23l.378-.42v1.68M377.46 78.112a.378-.378 0 00.756 0v-.924a.378-.378 0 00-.756 0v.924M374.133 71.09a.347-.347 0 01.336-.378.366-.366 0 01.336.546l-.672 1.134h.714M375.323 72.014a.378-.378 0 00.756 0v-.924a.378-.378 0 00-.756 0v.924M376.555 72.014a.378-.378 0 00.756 0v-.924a.378-.378 0 00-.756 0v.924M382.662 59.344a.371-.371 0 00-.336-.378.347-.347 0 00-.378.336v1.008a.377-.377 0 00.336.336.371-.371 0 00.378-.336v-.336a.378-.378 0 00-.714-.126M383.138 60.268a.378-.378 0 00.756 0v-.924a.378-.378 0 00-.756 0v.924M384.37 60.268a.378-.378 0 00.756 0v-.924a.378-.378 0 00-.756 0v.924M396.341 59.785l.378-.42v1.68M402.118 64.731h-.63v.714a.342-.342 0 01.63.21v.42a.349-.349 0 01-.336.336.392-.392 0 01-.378-.378M402.139 75.295l.378-.42v1.68M402.993 76.177a.378-.378 0 00.756 0v-.924a.378-.378 0 00-.756 0v.924M394.786 83.697a.42-.42 0 00.84 0 .418-.418 0 00-.42-.42.42-.42 0 010-.84.418-.418 0 01.42.42M396.858 82.437h-.756v1.68h.756M396.102 83.277h.63M398.062 82.801a.364-.364 0 00-.728 0v.952a.364-.364 0 00.728 0M398.538 84.117v-.084M390.044 108.289h-11.94M395.947 118.528L383.933 97.98M383.933 118.528l12.014-20.548M379.669 102.248l10.26 6.016M389.974 108.264l10.712-5.4M389.969 96.418v11.836M389.95 108.233l-11.714 2.6M389.942 108.296l8.758-8.314M389.96 108.234l12-1.418M389.959 108.25l-10.92 4.994M390.065 108.318l11.412 3.504M377.55 120.832v-1.68l.546 1.176.546-1.176v1.68M379.118 119.992h1.176M380.77 120.412a.42-.42 0 00.84 0 .418-.418 0 00-.42-.42.42-.42 0 010-.84.418-.418 0 01.42.42M382.842 119.152h-.756v1.68h.756M382.086 119.992h.63M384.046 119.516a.364-.364 0 00-.728 0v.952a.364-.364 0 00.728 0M384.522 120.832v-.084M376.606 113.94l.378-.42v1.68M377.46 114.822a.378-.378 0 00.756 0v-.924a.378-.378 0 00-.756 0v.924M374.133 107.8a.347-.347 0 01.336-.378.366-.366 0 01.336.546l-.672 1.134h.714M375.323 108.724a.378-.378 0 00.756 0v-.924a.378-.378 0 00-.756 0v.924M376.555 108.724a.378-.378 0 00.756 0v-.924a.378-.378 0 00-.756 0v.924M382.662 96.054a.371-.371 0 00-.336-.378.347-.347 0 00-.378.336v1.008a.377-.377 0 00.336.336.371-.371 0 00.378-.336v-.336a.378-.378 0 00-.714-.126M383.138 96.978a.378-.378 0 00.756 0v-.924a.378-.378 0 00-.756 0v.924M384.37 96.978a.378-.378 0 00.756 0v-.924a.378-.378 0 00-.756 0v.924M396.341 96.495l.378-.42v1.68M402.118 101.441h-.63v.714a.342-.342 0 01.63.21v.42a.349-.349 0 01-.336.336.392-.392 0 01-.378-.378M402.139 112.005l.378-.42v1.68M402.993 112.887a.378-.378 0 00.756 0v-.924a.378-.378 0 00-.756 0v.924M394.786 120.407a.42-.42 0 00.84 0 .418-.418 0 00-.42-.42.42-.42 0 010-.84.418-.418 0 01.42.42M396.858 119.147h-.756v1.68h.756M396.102 119.987h.63M398.062 119.511a.364-.364 0 00-.728 0v.952a.364-.364 0 00.728 0M398.538 120.827v-.084M361.034 108.289h-11.94M366.937 118.528L354.923 97.98M354.923 118.528l12.014-20.548M350.659 102.248l10.26 6.016M360.964 108.264l10.712-5.4M360.959 96.418v11.836M360.94 108.233l-11.714 2.6M360.932 108.296l8.758-8.314M360.95 108.234l12-1.418M360.949 108.25l-10.92 4.994M361.055 108.318l11.412 3.504M348.54 120.832v-1.68l.546 1.176.546-1.176v1.68M350.108 119.992h1.176M351.76 120.412a.42-.42 0 00.84 0 .418-.418 0 00-.42-.42.42-.42 0 010-.84.418-.418 0 01.42.42M353.832 119.152h-.756v1.68h.756M353.076 119.992h.63M355.036 119.516a.364-.364 0 00-.728 0v.952a.364-.364 0 00.728 0M355.512 120.832v-.084M347.596 113.94l.378-.42v1.68M348.45 114.822a.378-.378 0 00.756 0v-.924a.378-.378 0 00-.756 0v.924M345.123 107.8a.347-.347 0 01.336-.378.366-.366 0 01.336.546l-.672 1.134h.714M346.313 108.724a.378-.378 0 00.756 0v-.924a.378-.378 0 00-.756 0v.924M347.545 108.724a.378-.378 0 00.756 0v-.924a.378-.378 0 00-.756 0v.924M353.652 96.054a.371-.371 0 00-.336-.378.347-.347 0 00-.378.336v1.008a.377-.377 0 00.336.336.371-.371 0 00.378-.336v-.336a.378-.378 0 00-.714-.126M354.128 96.978a.378-.378 0 00.756 0v-.924a.378-.378 0 00-.756 0v.924M355.36 96.978a.378-.378 0 00.756 0v-.924a.378-.378 0 00-.756 0v.924M367.331 96.495l.378-.42v1.68M373.108 101.441h-.63v.714a.342-.342 0 01.63.21v.42a.349-.349 0 01-.336.336.392-.392 0 01-.378-.378M373.129 112.005l.378-.42v1.68M373.983 112.887a.378-.378 0 00.756 0v-.924a.378-.378 0 00-.756 0v.924M365.776 120.407a.42-.42 0 00.84 0 .418-.418 0 00-.42-.42.42-.42 0 010-.84.418-.418 0 01.42.42M367.848 119.147h-.756v1.68h.756M367.092 119.987h.63M369.052 119.511a.364-.364 0 00-.728 0v.952a.364-.364 0 00.728 0M369.528 120.827v-.084M187.155 73.599l-23.31-4.11M185.749 77.462l-20.498-11.836M183.107 80.61l-15.214-18.132M179.548 82.665l-8.096-22.242M175.492 56.723v14.838M163.845 73.599l23.31-4.11M165.251 77.462l20.498-11.836M167.893 80.61l15.214-18.132M171.452 82.665l8.096-22.242M184.294 81.786v-.336h.816l-.624 1.92M164.325 82.412h1.344M166.197 81.788v-.336h.816l-.624 1.92M159.924 73.853h1.344M162.612 72.893h-.72v.816a.39-.39 0 01.72.24v.48a.398-.398 0 01-.384.384.448-.448 0 01-.432-.432M161.094 65.294h1.344M163.014 64.718a.394-.394 0 01.496-.352.425-.425 0 01-.16.832.524-.524 0 01.208 1.024.462-.462 0 01-.592-.4M169.143 58.381h1.344M171.015 57.901l.432-.48v1.92M180.112 57.899l.432-.48v1.92M187.111 64.716a.394-.394 0 01.496-.352.425-.425 0 01-.16.832.524-.524 0 01.208 1.024.462-.462 0 01-.592-.4M189.209 72.891h-.72v.816a.39-.39 0 01.72.24v.48a.398-.398 0 01-.384.384.448-.448 0 01-.432-.432M187.155 110.309l-23.31-4.11M185.749 114.172l-20.498-11.835M183.107 117.32l-15.214-18.132M179.548 119.375l-8.096-22.242M175.492 93.433v14.838M163.845 110.309l23.31-4.11M165.251 114.172l20.498-11.835M167.893 117.32l15.214-18.132M171.452 119.375l8.096-22.242M184.294 118.496v-.336h.816l-.624 1.92M164.325 119.122h1.344M166.197 118.498v-.336h.816l-.624 1.92M159.924 110.563h1.344M162.612 109.603h-.72v.816a.39-.39 0 01.72.24v.48a.398-.398 0 01-.384.384.448-.448 0 01-.432-.432M161.094 102.004h1.344M163.014 101.428a.394-.394 0 01.496-.352.425-.425 0 01-.16.832.524-.524 0 01.208 1.024.462-.462 0 01-.592-.4M169.143 95.091h1.344M171.015 94.611l.432-.48v1.92M180.112 94.609l.432-.48v1.92M187.111 101.426a.394-.394 0 01.496-.352.425-.425 0 01-.16.832.524-.524 0 01.208 1.024.462-.462 0 01-.592-.4M189.209 109.601h-.72v.816a.39-.39 0 01.72.24v.48a.398-.398 0 01-.384.384.448-.448 0 01-.432-.432M131.009 111.361l11.408-3.056M142.393 108.284l-11.408-3.056M142.368 108.236l-8.35-8.35M142.379 108.248l-3.056-11.408M142.488 108.291l3.056-11.408M142.529 108.245l8.35-8.35M142.509 108.284l11.408-3.056M128.395 110.463v1.68h.546M129.417 111.765a.378-.378 0 00.756 0v-.924a.378-.378 0 00-.756 0v.924M128.395 114.223v-1.68l.546 1.176.546-1.176v1.68M129.963 113.845a.378-.378 0 00.756 0v-.924a.378-.378 0 00-.756 0v.924M131.195 114.223v-1.68l.756 1.68v-1.68M132.427 113.845a.378-.378 0 00.756 0v-.924a.378-.378 0 00-.756 0v.924M128.283 102.997v1.68h.546M129.305 104.299a.378-.378 0 00.756 0v-.924a.378-.378 0 00-.756 0v.924M131.662 97.799a.344-.344 0 01.434-.308.372-.372 0 01-.14.728.459-.459 0 01.182.896.405-.405 0 01-.518-.35M132.936 97.841a.347-.347 0 01.336-.378.366-.366 0 01.336.546l-.672 1.134h.714M138.437 94.535l.378-.42v1.68M139.991 94.493a.371-.371 0 00-.336-.378.347-.347 0 00-.378.336v1.008a.377-.377 0 00.336.336.371-.371 0 00.378-.336v-.336a.378-.378 0 00-.714-.126M145.763 95.778a.362-.362 0 00.364-.364v-.126a.355-.355 0 00-.364-.35.334-.334 0 00.336-.336v-.168a.336-.336 0 00-.672 0v.168a.334-.334 0 00.336.336.355-.355 0 00-.364.35v.126a.362-.362 0 00.364.364M152.355 97.781l-.546 1.26h.714M152.355 98.621v.84M154.922 104.151a.347-.347 0 01.336-.378.366-.366 0 01.336.546l-.672 1.134h.714M128.283 66.287v1.68h.546M129.305 67.589a.378-.378 0 00.756 0v-.924a.378-.378 0 00-.756 0v.924M131.662 61.089a.344-.344 0 01.434-.308.372-.372 0 01-.14.728.459-.459 0 01.182.896.405-.405 0 01-.518-.35M132.936 61.131a.347-.347 0 01.336-.378.366-.366 0 01.336.546l-.672 1.134h.714M138.437 57.825l.378-.42v1.68M139.991 57.783a.371-.371 0 00-.336-.378.347-.347 0 00-.378.336v1.008a.377-.377 0 00.336.336.371-.371 0 00.378-.336v-.336a.378-.378 0 00-.714-.126M145.763 59.068a.362-.362 0 00.364-.364v-.126a.355-.355 0 00-.364-.35.334-.334 0 00.336-.336v-.168a.336-.336 0 00-.672 0v.168a.334-.334 0 00.336.336.355-.355 0 00-.364.35v.126a.362-.362 0 00.364.364M152.355 61.071l-.546 1.26h.714M152.355 61.911v.84M154.922 67.441a.347-.347 0 01.336-.378.366-.366 0 01.336.546l-.672 1.134h.714M142.393 71.574l-11.408-3.056M142.368 71.526l-8.35-8.35M142.379 71.538l-3.056-11.408M142.509 71.574l11.408-3.056M142.529 71.535l8.35-8.35M142.488 71.581l3.056-11.408M128.283 30.607v1.68h.546M129.305 31.909a.378-.378 0 00.756 0v-.924a.378-.378 0 00-.756 0v.924M131.662 25.409a.344-.344 0 01.434-.308.372-.372 0 01-.14.728.459-.459 0 01.182.896.405-.405 0 01-.518-.35M132.936 25.451a.347-.347 0 01.336-.378.366-.366 0 01.336.546l-.672 1.134h.714M138.437 22.145l.378-.42v1.68M139.991 22.103a.371-.371 0 00-.336-.378.347-.347 0 00-.378.336v1.008a.377-.377 0 00.336.336.371-.371 0 00.378-.336v-.336a.378-.378 0 00-.714-.126M145.763 23.388a.362-.362 0 00.364-.364v-.126a.355-.355 0 00-.364-.35.334-.334 0 00.336-.336v-.168a.336-.336 0 00-.672 0v.168a.334-.334 0 00.336.336.355-.355 0 00-.364.35v.126a.362-.362 0 00.364.364M152.355 25.391l-.546 1.26h.714M152.355 26.231v.84M154.922 31.761a.347-.347 0 01.336-.378.366-.366 0 01.336.546l-.672 1.134h.714M142.393 35.894l-11.408-3.056M142.368 35.846l-8.35-8.35M142.379 35.858l-3.056-11.408M142.509 35.894l11.408-3.056M142.529 35.855l8.35-8.35M142.488 35.901l3.056-11.408M195.077 31.336l1.064 1.464M193.991 32.801l1.066-1.468M198.287 25.387l1.064 1.464M197.202 26.849l1.646-2.274M205.71 22.017l-2.118 1.542M205.719 22.017v1.542M214.537 23.578h-1.47M213.071 21.875v1.7M213.067 21.872h-1.716M211.326 21.899v1.694M219.142 25.14v1.7M219.111 25.112h-1.344M217.741 25.138v1.694M220.608 26.843h-1.47M220.969 31.042v1.694M221.9 31.055v1.7M221.869 31.015h-.872M223.511 32.765h-1.614M208.483 35.894l-11.408-3.056M208.458 35.846l-8.35-8.35M208.469 35.858l-3.056-11.408M208.599 35.894l11.408-3.056M208.619 35.855l8.35-8.35M208.578 35.901l3.056-11.408M195.077 67.016l1.064 1.464M193.991 68.481l1.066-1.468M198.287 61.067l1.064 1.464M197.202 62.529l1.646-2.274M205.71 57.697l-2.118 1.542M205.719 57.697v1.542M214.537 59.258h-1.47M213.071 57.555v1.7M213.067 57.552h-1.716M211.326 57.579v1.694M219.142 60.82v1.7M219.111 60.792h-1.344M217.741 60.818v1.694M220.608 62.523h-1.47M220.969 66.722v1.694M221.9 66.735v1.7M221.869 66.695h-.872M223.511 68.445h-1.614M208.483 71.574l-11.408-3.056M208.458 71.526l-8.35-8.35M208.469 71.538l-3.056-11.408M208.599 71.574l11.408-3.056M208.619 71.535l8.35-8.35M208.578 71.581l3.056-11.408M195.077 103.726l1.064 1.464M193.991 105.191l1.066-1.468M198.123 97.085l2.118 1.542M198.114 97.085v1.542M205.71 94.407l-2.118 1.542M205.719 94.407v1.542M214.537 95.968h-1.47M213.071 94.265v1.7M213.067 94.262h-1.716M211.326 94.289v1.694M219.142 97.53v1.7M219.111 97.502h-1.344M217.741 97.528v1.694M220.608 99.233h-1.47M220.969 103.432v1.694M221.9 103.445v1.7M221.869 103.405h-.872M223.511 105.155h-1.614M208.483 108.284l-11.408-3.056M208.458 108.236l-8.35-8.35M208.469 108.248l-3.056-11.408M208.599 108.284l11.408-3.056M208.619 108.245l8.35-8.35M208.578 108.291l3.056-11.408" stroke-linecap="round" stroke-linejoin="round"/>
  <path fpd:engraving_ral_9010="1" fpd:print_element="1" fpd:visible="front" stroke-width=".2mm" stroke="#fff" vector-effect="non-scaling-stroke" fill="none" d="M480.438 113.89a.713-.595 0 001.425 0v-.558a.713-.595 0 00-1.425 0v.558M482.396 114.448v-1.674l1.336 1.674v-1.674" stroke-linecap="round" stroke-linejoin="round"/>
  <path fpd:visible="front" stroke-width=".1mm" stroke="#000" vector-effect="non-scaling-stroke" fill="none" d="M1.75 7.744a5.75-5.75 0 1111.5 0 5.75-5.75 0 11-11.5 0" stroke-linecap="round" stroke-linejoin="round"/>
  <path fpd:print_element="0" fpd:visible="front back" stroke-width=".1mm" stroke="#000" vector-effect="non-scaling-stroke" fill="#fff" d="M70.405 53.648a3.5-3.5 0 117 0 3.5-3.5 0 11-7 0M52.625 91.868a3.5-3.5 0 117 0 3.5-3.5 0 11-7 0M88.185 91.868a3.5-3.5 0 117 0 3.5-3.5 0 11-7 0M147.875 133.654a3.5-3.5 0 117 0 3.5-3.5 0 11-7 0M265.945 35.868a3.5-3.5 0 117 0 3.5-3.5 0 11-7 0M265.945 71.548a3.5-3.5 0 117 0 3.5-3.5 0 11-7 0M265.945 108.258a3.5-3.5 0 117 0 3.5-3.5 0 11-7 0M265.945 53.648a3.5-3.5 0 117 0 3.5-3.5 0 11-7 0M265.945 90.478a3.5-3.5 0 117 0 3.5-3.5 0 11-7 0M33.535 133.654a3.5-3.5 0 117 0 3.5-3.5 0 11-7 0M329.445 35.868a3.5-3.5 0 117 0 3.5-3.5 0 11-7 0M329.445 71.548a3.5-3.5 0 117 0 3.5-3.5 0 11-7 0M329.445 53.648a3.5-3.5 0 117 0 3.5-3.5 0 11-7 0M312.938 90.478a3.5-3.5 0 117 0 3.5-3.5 0 11-7 0M474.225 35.868a3.5-3.5 0 117 0 3.5-3.5 0 11-7 0M474.225 108.258a3.5-3.5 0 117 0 3.5-3.5 0 11-7 0M72.905 133.654a3.5-3.5 0 117 0 3.5-3.5 0 11-7 0M121.165 133.654a3.5-3.5 0 117 0 3.5-3.5 0 11-7 0M97.035 133.654a3.5-3.5 0 117 0 3.5-3.5 0 11-7 0M107.195 53.648a3.5-3.5 0 117 0 3.5-3.5 0 11-7 0M116.085 81.588a3.5-3.5 0 117 0 3.5-3.5 0 11-7 0M116.085 104.448a3.5-3.5 0 117 0 3.5-3.5 0 11-7 0M138.945 35.868a3.5-3.5 0 117 0 3.5-3.5 0 11-7 0M138.945 71.548a3.5-3.5 0 117 0 3.5-3.5 0 11-7 0M138.945 108.258a3.5-3.5 0 117 0 3.5-3.5 0 11-7 0M172.005 35.868a3.5-3.5 0 117 0 3.5-3.5 0 11-7 0M172.005 71.548a3.5-3.5 0 117 0 3.5-3.5 0 11-7 0M172.005 108.258a3.5-3.5 0 117 0 3.5-3.5 0 11-7 0M205.025 35.868a3.5-3.5 0 117 0 3.5-3.5 0 11-7 0M205.025 71.548a3.5-3.5 0 117 0 3.5-3.5 0 11-7 0M205.025 108.258a3.5-3.5 0 117 0 3.5-3.5 0 11-7 0M239.315 35.868a3.5-3.5 0 117 0 3.5-3.5 0 11-7 0M239.315 71.548a3.5-3.5 0 117 0 3.5-3.5 0 11-7 0M291.385 53.648a3.5-3.5 0 117 0 3.5-3.5 0 11-7 0M357.43 35.868a3.5-3.5 0 117 0 3.5-3.5 0 11-7 0M357.43 71.548a3.5-3.5 0 117 0 3.5-3.5 0 11-7 0M357.43 108.258a3.5-3.5 0 117 0 3.5-3.5 0 11-7 0M386.44 35.868a3.5-3.5 0 117 0 3.5-3.5 0 11-7 0M386.44 71.548a3.5-3.5 0 117 0 3.5-3.5 0 11-7 0M386.44 108.258a3.5-3.5 0 117 0 3.5-3.5 0 11-7 0M415.85 35.868a3.5-3.5 0 117 0 3.5-3.5 0 11-7 0M415.85 71.548a3.5-3.5 0 117 0 3.5-3.5 0 11-7 0M415.85 108.258a3.5-3.5 0 117 0 3.5-3.5 0 11-7 0M447.555 35.868a3.5-3.5 0 117 0 3.5-3.5 0 11-7 0M447.555 71.548a3.5-3.5 0 117 0 3.5-3.5 0 11-7 0M447.555 108.258a3.5-3.5 0 117 0 3.5-3.5 0 11-7 0M492.005 108.258a3.5-3.5 0 117 0 3.5-3.5 0 11-7 0M52.585 133.654a3.5-3.5 0 117 0 3.5-3.5 0 11-7 0M239.315 108.258a3.5-3.5 0 117 0 3.5-3.5 0 11-7 0M291.38 90.474a3.5-3.5 0 117 0 3.5-3.5 0 11-7 0" fill-rule="evenodd" stroke-linecap="round" stroke-linejoin="round"/>
  <path fpd:print_element="0" fpd:visible="front back" stroke-width=".1mm" stroke="#000" vector-effect="non-scaling-stroke" fill="#fff" d="M141.94 108.254a.5-.5 0 111 0 .5-.5 0 11-1 0M141.94 71.544a.5-.5 0 111 0 .5-.5 0 11-1 0M141.94 35.864a.5-.5 0 111 0 .5-.5 0 11-1 0M208.03 35.864a.5-.5 0 111 0 .5-.5 0 11-1 0M208.03 71.544a.5-.5 0 111 0 .5-.5 0 11-1 0M208.03 108.254a.5-.5 0 111 0 .5-.5 0 11-1 0" fill-rule="evenodd" stroke-linecap="round" stroke-linejoin="round"/>
  <path fpd:visible="front back" stroke-width=".1mm" stroke="#000" vector-effect="non-scaling-stroke" fill="none" d="M530 0v190H0V0h530" stroke-linecap="round" stroke-linejoin="round"/>
</svg>
