<?xml version="1.0" encoding="UTF-8" standalone="no"?>
<svg
   xmlns:dc="http://purl.org/dc/elements/1.1/"
   xmlns:cc="http://creativecommons.org/ns#"
   xmlns:rdf="http://www.w3.org/1999/02/22-rdf-syntax-ns#"
   xmlns:svg="http://www.w3.org/2000/svg"
   xmlns="http://www.w3.org/2000/svg"
   xmlns:sodipodi="http://sodipodi.sourceforge.net/DTD/sodipodi-0.dtd"
   xmlns:inkscape="http://www.inkscape.org/namespaces/inkscape"
   height="74.400002"
   width="74.400002"
   inkscape:version="1.0 (4035a4f, 2020-05-01)"
   sodipodi:docname="RoundSmallKnob.svg"
   xml:space="preserve"
   viewBox="0 0 74.400003 74.400003"
   y="0px"
   x="0px"
   id="Layer_1"
   version="1.1"><metadata
   id="metadata77"><rdf:RDF><cc:Work
       rdf:about=""><dc:format>image/svg+xml</dc:format><dc:type
         rdf:resource="http://purl.org/dc/dcmitype/StillImage" /><dc:title></dc:title></cc:Work></rdf:RDF></metadata><defs
   id="defs75">
	
</defs><sodipodi:namedview
   inkscape:current-layer="Layer_1"
   inkscape:window-maximized="1"
   inkscape:window-y="23"
   inkscape:window-x="0"
   inkscape:cy="70.849998"
   inkscape:cx="70.849998"
   inkscape:zoom="5.1870149"
   showgrid="false"
   id="namedview73"
   inkscape:window-height="1155"
   inkscape:window-width="1920"
   inkscape:pageshadow="2"
   inkscape:pageopacity="0"
   guidetolerance="10"
   gridtolerance="10"
   objecttolerance="10"
   borderopacity="1"
   bordercolor="#666666"
   pagecolor="#ffffff" />
<style
   id="style56"
   type="text/css">
	.st0{fill:#414042;}
	.st1{fill:#939598;}
	.st2{fill:#FFFFFF;}
	.st3{fill:none;stroke:#FFFFFF;stroke-width:1.3461;stroke-linecap:round;stroke-miterlimit:10;}
</style>
<g
   transform="matrix(1,0,0,1.000021,-33.199219,-37.801575)"
   id="g68">
		<g
   id="g60">
			<g
   style="opacity:1"
   id="g87"><path
     id="path89"
     d="m 107.1,75 c 0,20.268849 -16.431149,36.7 -36.699998,36.7 -20.26885,0 -36.7,-16.43115 -36.700001,-36.7 0,-20.268851 16.43115,-36.700001 36.700001,-36.700001 C 90.668852,38.300001 107.1,54.73115 107.1,75"
     style="color:#000000;font-style:normal;font-variant:normal;font-weight:normal;font-stretch:normal;font-size:medium;line-height:normal;font-family:sans-serif;font-variant-ligatures:normal;font-variant-position:normal;font-variant-caps:normal;font-variant-numeric:normal;font-variant-alternates:normal;font-variant-east-asian:normal;font-feature-settings:normal;font-variation-settings:normal;text-indent:0;text-align:start;text-decoration:none;text-decoration-line:none;text-decoration-style:solid;text-decoration-color:#000000;letter-spacing:normal;word-spacing:normal;text-transform:none;writing-mode:lr-tb;direction:ltr;text-orientation:mixed;dominant-baseline:auto;baseline-shift:baseline;text-anchor:start;white-space:normal;shape-padding:0;shape-margin:0;inline-size:0;clip-rule:nonzero;display:inline;overflow:visible;visibility:visible;isolation:auto;mix-blend-mode:normal;color-interpolation:sRGB;color-interpolation-filters:linearRGB;solid-color:#000000;solid-opacity:1;vector-effect:none;fill:#414042;fill-opacity:1;fill-rule:nonzero;stroke:none;stroke-width:1;stroke-linecap:butt;stroke-linejoin:miter;stroke-miterlimit:4;stroke-dasharray:none;stroke-dashoffset:0;stroke-opacity:1;color-rendering:auto;image-rendering:auto;shape-rendering:auto;text-rendering:auto;enable-background:accumulate;stop-color:#000000;stop-opacity:1" /><path
     id="path91"
     d="M 70.400391,37.800781 C 49.86132,37.800781 33.199219,54.460929 33.199219,75 c 0,20.539071 16.662101,37.19922 37.201172,37.19922 20.539069,0 37.199219,-16.660151 37.199219,-37.19922 0,-20.53907 -16.66015,-37.199217 -37.199219,-37.199219 z m 0,1 C 90.39902,38.800783 106.59961,55.00137 106.59961,75 c 0,19.998629 -16.20059,36.19922 -36.199219,36.19922 -19.998631,0 -36.201172,-16.20059 -36.201172,-36.19922 0,-19.998631 16.202541,-36.199219 36.201172,-36.199219 z"
     style="color:#000000;font-style:normal;font-variant:normal;font-weight:normal;font-stretch:normal;font-size:medium;line-height:normal;font-family:sans-serif;font-variant-ligatures:normal;font-variant-position:normal;font-variant-caps:normal;font-variant-numeric:normal;font-variant-alternates:normal;font-variant-east-asian:normal;font-feature-settings:normal;font-variation-settings:normal;text-indent:0;text-align:start;text-decoration:none;text-decoration-line:none;text-decoration-style:solid;text-decoration-color:#000000;letter-spacing:normal;word-spacing:normal;text-transform:none;writing-mode:lr-tb;direction:ltr;text-orientation:mixed;dominant-baseline:auto;baseline-shift:baseline;text-anchor:start;white-space:normal;shape-padding:0;shape-margin:0;inline-size:0;clip-rule:nonzero;display:inline;overflow:visible;visibility:visible;isolation:auto;mix-blend-mode:normal;color-interpolation:sRGB;color-interpolation-filters:linearRGB;solid-color:#000000;solid-opacity:1;vector-effect:none;fill-opacity:1;fill-rule:nonzero;stroke:none;stroke-width:1;stroke-linecap:butt;stroke-linejoin:miter;stroke-miterlimit:4;stroke-dasharray:none;stroke-dashoffset:0;stroke-opacity:1;color-rendering:auto;image-rendering:auto;shape-rendering:auto;text-rendering:auto;enable-background:accumulate;stop-color:#000000;stop-opacity:1" /></g>
		</g>
		<g
   style="opacity:1"
   id="g93"><path
     id="path95"
     d="M 100.6,76.7 C 98.8,74.8 97.5,72.4 97,69.7 96.5,67 96.6,64.3 97.4,61.8 95.7,58.3 93.3,55.2 90.3,52.6 87.7,52.8 85,52.3 82.6,51.1 80.1,49.8 78.1,48 76.7,45.9 72.8,45.1 68.8,45 65.1,45.7 c -1.4,2.2 -3.5,3.9 -6,5.1 -2.5,1.2 -5.2,1.6 -7.8,1.3 -3,2.4 -5.5,5.5 -7.4,9 0.7,2.5 0.9,5.2 0.3,7.9 -0.6,2.7 -2,5 -3.9,6.9 0.1,3.9 0.9,7.8 2.4,11.3 2.4,1 4.6,2.5 6.3,4.8 1.7,2.2 2.7,4.8 3.1,7.3 3.1,2.3 6.6,4.1 10.4,5.2 2.2,-1.3 4.8,-2 7.6,-2 2.8,0 5.4,0.8 7.6,2.2 3.8,-0.9 7.4,-2.6 10.5,-4.9 0.4,-2.6 1.4,-5 3.2,-7.2 1.8,-2.2 4,-3.7 6.5,-4.6 0.8,-1.7 1.4,-3.6 1.9,-5.5 0.5,-1.9 0.7,-3.9 0.8,-5.8 z"
     style="color:#000000;font-style:normal;font-variant:normal;font-weight:normal;font-stretch:normal;font-size:medium;line-height:normal;font-family:sans-serif;font-variant-ligatures:normal;font-variant-position:normal;font-variant-caps:normal;font-variant-numeric:normal;font-variant-alternates:normal;font-variant-east-asian:normal;font-feature-settings:normal;font-variation-settings:normal;text-indent:0;text-align:start;text-decoration:none;text-decoration-line:none;text-decoration-style:solid;text-decoration-color:#000000;letter-spacing:normal;word-spacing:normal;text-transform:none;writing-mode:lr-tb;direction:ltr;text-orientation:mixed;dominant-baseline:auto;baseline-shift:baseline;text-anchor:start;white-space:normal;shape-padding:0;shape-margin:0;inline-size:0;clip-rule:nonzero;display:inline;overflow:visible;visibility:visible;isolation:auto;mix-blend-mode:normal;color-interpolation:sRGB;color-interpolation-filters:linearRGB;solid-color:#000000;solid-opacity:1;vector-effect:none;fill:#000000;fill-opacity:1;fill-rule:nonzero;stroke:none;stroke-width:1;stroke-linecap:butt;stroke-linejoin:miter;stroke-miterlimit:4;stroke-dasharray:none;stroke-dashoffset:0;stroke-opacity:1;color-rendering:auto;image-rendering:auto;shape-rendering:auto;text-rendering:auto;enable-background:accumulate;stop-color:#000000;stop-opacity:1" /><path
     id="path97"
     d="m 70.833984,44.738281 c -1.981965,-0.03812 -3.939562,0.113777 -5.826172,0.470703 l -0.21289,0.03906 -0.117188,0.183594 c -1.341049,2.107362 -3.362526,3.750419 -5.794922,4.917968 -2.412465,1.157984 -5.014821,1.543588 -7.52539,1.253907 l -0.207031,-0.02344 -0.16211,0.128906 c -3.058195,2.446556 -5.598666,5.599517 -7.527343,9.152344 l -0.09766,0.177734 0.05469,0.195313 c 0.681464,2.433802 0.872552,5.048126 0.292969,7.65625 -0.577315,2.597915 -1.919497,4.812074 -3.763672,6.65625 l -0.152344,0.150391 0.0059,0.214843 c 0.101533,3.95977 0.911834,7.91993 2.439453,11.484375 l 0.08008,0.1875 0.1875,0.07813 c 2.336277,0.973449 4.45064,2.417019 6.089844,4.634766 l 0.0039,0.0039 0.002,0.0059 c 1.641465,2.124249 2.613948,4.647235 3.001953,7.072265 l 0.0332,0.201172 0.164062,0.121094 c 3.144377,2.332924 6.697421,4.161584 10.558594,5.279294 l 0.207031,0.0606 0.185547,-0.11133 C 64.873043,103.67747 67.382943,103 70.099609,103 c 2.704762,0 5.209781,0.77057 7.332032,2.12109 l 0.177734,0.11329 0.205078,-0.0469 c 3.868488,-0.91622 7.529515,-2.64621 10.683594,-4.98633 l 0.164062,-0.12109 0.03125,-0.203127 c 0.387988,-2.52192 1.349133,-4.828627 3.09375,-6.960937 1.744096,-2.131672 3.861833,-3.573619 6.283203,-4.445313 l 0.19336,-0.07031 0.08789,-0.1875 c 0.820104,-1.742721 1.427466,-3.670071 1.931638,-5.585938 0.51363,-1.951778 0.71554,-3.983839 0.81641,-5.900391 l 0.0117,-0.214843 -0.14844,-0.15625 c -1.738086,-1.834647 -2.989298,-4.146509 -3.470702,-6.746094 -0.48696,-2.629579 -0.387072,-5.244258 0.384765,-7.65625 l 0.06055,-0.191406 -0.08789,-0.179688 c -1.730108,-3.561987 -4.173747,-6.716987 -7.222656,-9.359375 l -0.15625,-0.136718 -0.208984,0.01562 c -2.51007,0.193083 -5.121974,-0.291455 -7.4375,-1.449218 -2.426186,-1.26293 -4.358953,-3.00425 -5.708985,-5.029297 L 77.001937,45.45115 76.800765,45.41013 C 74.821836,45.004219 72.81595,44.776399 70.833984,44.738281 Z m -0.01758,1 c 1.870125,0.03596 3.764469,0.260928 5.638672,0.636719 1.440264,2.08141 3.427749,3.875085 5.914063,5.167969 l 0.0039,0.002 0.0039,0.002 c 2.402528,1.201264 5.086346,1.689131 7.693359,1.535156 2.864799,2.506942 5.163282,5.473466 6.808594,8.81836 -0.757814,2.518342 -0.867983,5.207423 -0.371094,7.890625 0.501576,2.708509 1.804401,5.1014 3.572272,7.035156 -0.101799,1.837307 -0.29031,3.748079 -0.763678,5.546875 -0.483472,1.837196 -1.070816,3.652949 -1.822265,5.279297 -2.475744,0.937798 -4.685094,2.436512 -6.480469,4.630859 -1.795071,2.193976 -2.798029,4.609999 -3.236328,7.189453 -2.980806,2.18786 -6.424636,3.81067 -10.056641,4.6914 C 75.492483,102.80363 72.897787,102 70.099609,102 c -2.784467,0 -5.370093,0.70484 -7.599609,1.96484 -3.634499,-1.07152 -6.988322,-2.79261 -9.974609,-4.988278 -0.436065,-2.496094 -1.424163,-5.071364 -3.123047,-7.273437 -1.704695,-2.306352 -3.911279,-3.813073 -6.285156,-4.839844 -1.416121,-3.35473 -2.184815,-7.083805 -2.298829,-10.822265 1.860018,-1.919184 3.266793,-4.221077 3.869141,-6.931641 0.600973,-2.704381 0.399122,-5.395662 -0.265625,-7.894531 1.838498,-3.349922 4.234407,-6.312186 7.089844,-8.623047 2.60704,0.253624 5.3027,-0.140843 7.804687,-1.341797 2.478296,-1.189582 4.561418,-2.893358 6.017578,-5.070312 1.771791,-0.324955 3.612366,-0.477366 5.482422,-0.441407 z"
     style="color:#000000;font-style:normal;font-variant:normal;font-weight:normal;font-stretch:normal;font-size:medium;line-height:normal;font-family:sans-serif;font-variant-ligatures:normal;font-variant-position:normal;font-variant-caps:normal;font-variant-numeric:normal;font-variant-alternates:normal;font-variant-east-asian:normal;font-feature-settings:normal;font-variation-settings:normal;text-indent:0;text-align:start;text-decoration:none;text-decoration-line:none;text-decoration-style:solid;text-decoration-color:#000000;letter-spacing:normal;word-spacing:normal;text-transform:none;writing-mode:lr-tb;direction:ltr;text-orientation:mixed;dominant-baseline:auto;baseline-shift:baseline;text-anchor:start;white-space:normal;shape-padding:0;shape-margin:0;inline-size:0;clip-rule:nonzero;display:inline;overflow:visible;visibility:visible;isolation:auto;mix-blend-mode:normal;color-interpolation:sRGB;color-interpolation-filters:linearRGB;solid-color:#000000;solid-opacity:1;vector-effect:none;fill-opacity:1;fill-rule:nonzero;stroke:none;stroke-width:1;stroke-linecap:butt;stroke-linejoin:miter;stroke-miterlimit:4;stroke-dasharray:none;stroke-dashoffset:0;stroke-opacity:1;color-rendering:auto;image-rendering:auto;shape-rendering:auto;text-rendering:auto;enable-background:accumulate;stop-color:#000000;stop-opacity:1" /></g>
		
			<g
   style="opacity:1"
   transform="matrix(0.2359,-0.9718,0.9718,0.2359,-19.1643,125.6766)"
   id="g99"><path
     id="path101"
     d="m 90.900003,75 c 0,11.377066 -9.222934,20.6 -20.6,20.6 -11.377066,0 -20.6,-9.222934 -20.6,-20.6 0,-11.377066 9.222934,-20.6 20.6,-20.6 11.377066,0 20.6,9.222934 20.6,20.6"
     style="color:#000000;font-style:normal;font-variant:normal;font-weight:normal;font-stretch:normal;font-size:medium;line-height:normal;font-family:sans-serif;font-variant-ligatures:normal;font-variant-position:normal;font-variant-caps:normal;font-variant-numeric:normal;font-variant-alternates:normal;font-variant-east-asian:normal;font-feature-settings:normal;font-variation-settings:normal;text-indent:0;text-align:start;text-decoration:none;text-decoration-line:none;text-decoration-style:solid;text-decoration-color:#000000;letter-spacing:normal;word-spacing:normal;text-transform:none;writing-mode:lr-tb;direction:ltr;text-orientation:mixed;dominant-baseline:auto;baseline-shift:baseline;text-anchor:start;white-space:normal;shape-padding:0;shape-margin:0;inline-size:0;clip-rule:nonzero;display:inline;overflow:visible;visibility:visible;isolation:auto;mix-blend-mode:normal;color-interpolation:sRGB;color-interpolation-filters:linearRGB;solid-color:#000000;solid-opacity:1;vector-effect:none;fill:#939598;fill-opacity:1;fill-rule:nonzero;stroke:none;stroke-width:1;stroke-linecap:butt;stroke-linejoin:miter;stroke-miterlimit:4;stroke-dasharray:none;stroke-dashoffset:0;stroke-opacity:1;color-rendering:auto;image-rendering:auto;shape-rendering:auto;text-rendering:auto;enable-background:accumulate;stop-color:#000000;stop-opacity:1" /><path
     id="path103"
     d="m 70.300781,53.900391 c -11.647286,0 -21.101562,9.452323 -21.101562,21.099609 0,11.647286 9.454276,21.099609 21.101562,21.099609 11.647286,0 21.09961,-9.452323 21.09961,-21.099609 0,-11.647286 -9.452324,-21.099609 -21.09961,-21.099609 z m 0,1 c 11.106846,0 20.09961,8.992763 20.09961,20.099609 0,11.106846 -8.992764,20.099609 -20.09961,20.099609 -11.106846,0 -20.101562,-8.992763 -20.101562,-20.099609 0,-11.106846 8.994716,-20.099609 20.101562,-20.099609 z"
     style="color:#000000;font-style:normal;font-variant:normal;font-weight:normal;font-stretch:normal;font-size:medium;line-height:normal;font-family:sans-serif;font-variant-ligatures:normal;font-variant-position:normal;font-variant-caps:normal;font-variant-numeric:normal;font-variant-alternates:normal;font-variant-east-asian:normal;font-feature-settings:normal;font-variation-settings:normal;text-indent:0;text-align:start;text-decoration:none;text-decoration-line:none;text-decoration-style:solid;text-decoration-color:#000000;letter-spacing:normal;word-spacing:normal;text-transform:none;writing-mode:lr-tb;direction:ltr;text-orientation:mixed;dominant-baseline:auto;baseline-shift:baseline;text-anchor:start;white-space:normal;shape-padding:0;shape-margin:0;inline-size:0;clip-rule:nonzero;display:inline;overflow:visible;visibility:visible;isolation:auto;mix-blend-mode:normal;color-interpolation:sRGB;color-interpolation-filters:linearRGB;solid-color:#000000;solid-opacity:1;vector-effect:none;fill-opacity:1;fill-rule:nonzero;stroke:none;stroke-width:1;stroke-linecap:butt;stroke-linejoin:miter;stroke-miterlimit:4;stroke-dasharray:none;stroke-dashoffset:0;stroke-opacity:1;color-rendering:auto;image-rendering:auto;shape-rendering:auto;text-rendering:auto;enable-background:accumulate;stop-color:#000000;stop-opacity:1" /></g>
		<g
   style="opacity:1"
   id="g105"><path
     id="path107"
     d="m 71.3,38.3 h -0.9 -0.9 v 24 h 1.9 z"
     style="color:#000000;font-style:normal;font-variant:normal;font-weight:normal;font-stretch:normal;font-size:medium;line-height:normal;font-family:sans-serif;font-variant-ligatures:normal;font-variant-position:normal;font-variant-caps:normal;font-variant-numeric:normal;font-variant-alternates:normal;font-variant-east-asian:normal;font-feature-settings:normal;font-variation-settings:normal;text-indent:0;text-align:start;text-decoration:none;text-decoration-line:none;text-decoration-style:solid;text-decoration-color:#000000;letter-spacing:normal;word-spacing:normal;text-transform:none;writing-mode:lr-tb;direction:ltr;text-orientation:mixed;dominant-baseline:auto;baseline-shift:baseline;text-anchor:start;white-space:normal;shape-padding:0;shape-margin:0;inline-size:0;clip-rule:nonzero;display:inline;overflow:visible;visibility:visible;isolation:auto;mix-blend-mode:normal;color-interpolation:sRGB;color-interpolation-filters:linearRGB;solid-color:#000000;solid-opacity:1;vector-effect:none;fill:#ffffff;fill-opacity:1;fill-rule:nonzero;stroke:none;stroke-width:1;stroke-linecap:butt;stroke-linejoin:miter;stroke-miterlimit:4;stroke-dasharray:none;stroke-dashoffset:0;stroke-opacity:1;color-rendering:auto;image-rendering:auto;shape-rendering:auto;text-rendering:auto;enable-background:accumulate;stop-color:#000000;stop-opacity:1" /><path
     id="path109"
     d="m 69,37.800781 v 25 h 2.902344 l -0.103516,-25 h -0.498047 -0.90039 z m 1,1 h 0.400391 0.402343 l 0.0957,23 H 70 Z"
     style="color:#000000;font-style:normal;font-variant:normal;font-weight:normal;font-stretch:normal;font-size:medium;line-height:normal;font-family:sans-serif;font-variant-ligatures:normal;font-variant-position:normal;font-variant-caps:normal;font-variant-numeric:normal;font-variant-alternates:normal;font-variant-east-asian:normal;font-feature-settings:normal;font-variation-settings:normal;text-indent:0;text-align:start;text-decoration:none;text-decoration-line:none;text-decoration-style:solid;text-decoration-color:#000000;letter-spacing:normal;word-spacing:normal;text-transform:none;writing-mode:lr-tb;direction:ltr;text-orientation:mixed;dominant-baseline:auto;baseline-shift:baseline;text-anchor:start;white-space:normal;shape-padding:0;shape-margin:0;inline-size:0;clip-rule:nonzero;display:inline;overflow:visible;visibility:visible;isolation:auto;mix-blend-mode:normal;color-interpolation:sRGB;color-interpolation-filters:linearRGB;solid-color:#000000;solid-opacity:1;vector-effect:none;fill-opacity:1;fill-rule:nonzero;stroke:none;stroke-width:1;stroke-linecap:butt;stroke-linejoin:miter;stroke-miterlimit:4;stroke-dasharray:none;stroke-dashoffset:0;stroke-opacity:1;color-rendering:auto;image-rendering:auto;shape-rendering:auto;text-rendering:auto;enable-background:accumulate;stop-color:#000000;stop-opacity:1" /></g>
	</g>
</svg>
